<svg id="kity_svg_13" version="1.1" width="1843" height="832" style="background: #FBFBFB;" viewBox="0 0 1843 832" xmlns="http://www.w3.org/2000/svg" xmlns:xlink="http://www.w3.org/1999/xlink"><style>* {margin: 0;padding: 0;}</style><defs id="kity_defs_14"><pattern id="kity_pattern_68" patternUnits="userSpaceOnUse"></pattern><marker id="kity_marker_265" orient="auto" markerWidth="5" markerHeight="5" refX="5" refY="2.5" markerUnits="strokeWidth"><path id="kity_path_266" fill="#0DD4FF" stroke="none" d="M0,0 L1,2.5 L0,5 L5,2.5 Z" stroke-dasharray="0"></path></marker><marker id="kity_marker_275" orient="auto" markerWidth="5" markerHeight="5" refX="5" refY="2.5" markerUnits="strokeWidth"><path id="kity_path_276" fill="#00B0F0" stroke="none" d="M0,0 L1,2.5 L0,5 L5,2.5 Z" stroke-dasharray="0"></path></marker><marker id="kity_marker_3444" orient="auto" markerWidth="5" markerHeight="5" refX="5" refY="2.5" markerUnits="strokeWidth"><path id="kity_path_3445" fill="#000000" stroke="none" d="M0,0 L1,2.5 L0,5 L5,2.5 Z" stroke-dasharray="0"></path></marker><marker id="kity_marker_4897" orient="auto" markerWidth="5" markerHeight="5" refX="5" refY="2.5" markerUnits="strokeWidth"><path id="kity_path_4898" fill="#696969" stroke="none" d="M0,0 L1,2.5 L0,5 L5,2.5 Z" stroke-dasharray="0"></path></marker><marker id="kity_marker_12263" orient="auto" markerWidth="5" markerHeight="5" refX="5" refY="2.5" markerUnits="strokeWidth"><path id="kity_path_12264" fill="#7E7E7E" stroke="none" d="M0,0 L1,2.5 L0,5 L5,2.5 Z" stroke-dasharray="0"></path></marker><marker id="kity_marker_12283" orient="auto" markerWidth="5" markerHeight="5" refX="5" refY="2.5" markerUnits="strokeWidth"><path id="kity_path_12284" fill="#9B9B9B" stroke="none" d="M0,0 L1,2.5 L0,5 L5,2.5 Z" stroke-dasharray="0"></path></marker><marker id="kity_marker_22552" orient="auto" markerWidth="5" markerHeight="5" refX="5" refY="2.5" markerUnits="strokeWidth"><path id="kity_path_22553" fill="#C2C2C2" stroke="none" d="M0,0 L1,2.5 L0,5 L5,2.5 Z" stroke-dasharray="0"></path></marker></defs><g id="kity_g_15"><g id="watermark" display="none" transform="translate( -203 778 ) matrix( 1 0 0 1 850.5 -94 )"><path id="kity_path_69" fill="url(#kity_pattern_68)" stroke="none" d="M-6000,-6000h12000v12000h-12000z" pointer-events="none"></path></g><g id="minder1" text-rendering="optimize-speed" transform="translate( -203 778 ) matrix( 1 0 0 1 850.5 -94 )"><g id="minder_connect_group1"><path id="kity_path_88" fill="none" stroke="#5D6C8C" stroke-width="2" stroke-dasharray="null" d="M40,31L40,48.5L-128,48.5C-184,48.5,-184,48.5,-184,57.25L-184,66" transform="translate( 0.5 0.5 )"></path><path id="kity_path_90" fill="none" stroke="#5D6C8C" stroke-width="2" stroke-dasharray="null" d="M40,31L40,48.5L-9.125,48.5C-25,48.5,-25,48.5,-25,57.25L-25.5,66" transform="translate( 0.5 0.5 )"></path><path id="kity_path_92" fill="none" stroke="#5D6C8C" stroke-width="2" stroke-dasharray="null" d="M40,31L40,48.5L96.25,48.5C115,48.5,115,48.5,115,57.25L115,66" transform="translate( 0.5 0.5 )"></path><path id="kity_path_94" fill="none" stroke="#5D6C8C" stroke-width="2" stroke-dasharray="null" d="M40,31L40,48.5L212.125,48.5C270,48.5,270,48.5,270,57.25L269.5,66" transform="translate( 0.5 0.5 )"></path><path id="kity_path_156" fill="none" stroke="#5D6C8C" stroke-width="2" stroke-dasharray="null" d="M966,-340L983.75,-340L983.75,-451.6C983.75,-464,983.75,-464,992.625,-464L1001.5,-464" transform="translate( 0.5 0.5 )"></path><path id="kity_path_158" fill="none" stroke="#5D6C8C" stroke-width="2" stroke-dasharray="null" d="M966,-340L983.75,-340L983.75,-376.9C983.75,-381,983.75,-381,992.625,-381L1001.5,-381" transform="translate( 0.5 0.5 )"></path><path id="kity_path_160" fill="none" stroke="#5D6C8C" stroke-width="2" stroke-dasharray="null" d="M966,-340L983.75,-340L983.75,-302.2C983.75,-298,983.75,-298,992.625,-298L1001.5,-298" transform="translate( 0.5 0.5 )"></path><path id="kity_path_162" fill="none" stroke="#5D6C8C" stroke-width="2" stroke-dasharray="null" d="M966,-340L983.75,-340L983.75,-227.5C983.75,-215,983.75,-215,992.625,-215L1001.5,-215" transform="translate( 0.5 0.5 )"></path><path id="kity_path_18224" fill="none" stroke="#5D6C8C" stroke-width="2" stroke-dasharray="null" d="M-74,-564L-74,-576.5L-126.5,-576.5C-144,-576.5,-144,-576.5,-144,-582.75L-144,-589" transform="translate( 0.5 0.5 )"></path><path id="kity_path_18225" fill="none" stroke="#5D6C8C" stroke-width="2" stroke-dasharray="null" d="M-74,-564L-74,-576.5L-14,-576.5C6,-576.5,6,-576.5,6,-582.75L6,-589" transform="translate( 0.5 0.5 )"></path><path id="kity_path_18226" fill="none" stroke="#5D6C8C" stroke-width="2" stroke-dasharray="null" d="M-176,-332L-176.5,-418L-100,-418C-74,-418,-74,-418,-74,-461L-74.5,-504" transform="translate( 0.5 0.5 )"></path><path id="kity_path_18227" fill="none" stroke="#5D6C8C" stroke-width="2" stroke-dasharray="null" d="M-176,-332L-176.5,-349.5L-279.25,-349.5C-313,-349.5,-313,-349.5,-313,-358.25L-313.5,-367" transform="translate( 0.5 0.5 )"></path><path id="kity_path_18228" fill="none" stroke="#5D6C8C" stroke-width="2" stroke-dasharray="null" d="M-176,-332L-176.5,-382L-198.25,-382C-205,-382,-205,-382,-205,-407L-205.5,-432" transform="translate( 0.5 0.5 )"></path><path id="kity_path_18231" fill="none" stroke="#5D6C8C" stroke-width="2" stroke-dasharray="null" d="M-176,-332L-176.5,-349.5L-438.625,-349.5C-526,-349.5,-526,-349.5,-526,-358.25L-526,-367" transform="translate( 0.5 0.5 )"></path><path id="kity_path_40708" fill="none" stroke="#5D6C8C" stroke-width="2" stroke-dasharray="null" d="M-525,-429L-525.5,-437.5L-581,-437.5C-599,-437.5,-599,-437.5,-599,-441.75L-599.5,-446" transform="translate( 0.5 0.5 )"></path><path id="kity_path_40709" fill="none" stroke="#5D6C8C" stroke-width="2" stroke-dasharray="null" d="M-525,-429L-525.5,-437.5L-503.75,-437.5C-496,-437.5,-496,-437.5,-496,-441.75L-496.5,-446" transform="translate( 0.5 0.5 )"></path></g><g id="minder_preselect_group1" style="pointer-events: none;"></g><g id="minder_generalize_group1"></g><g id="minder_node_group1"><g id="minder_node36" transform="matrix( 1 0 0 1 -44 -604 )"><g id="node_childadder44" transform="translate( 50 -28 )" style="cursor: pointer;" display="none"><path id="kity_path_4037" fill="#0D7FFF" stroke="none" d="M10,0A10,10,0,1,1,-10,0A10,10,0,1,1,10,0"></path><path id="kity_path_4038" fill="none" stroke="white" stroke-width="2" d="M-6,0L6,0M0,-6L0,6"></path><path id="kity_path_4039" fill="transparent" stroke="none" d="M20,0A20,20,0,1,1,-20,0A20,20,0,1,1,20,0"></path></g><g id="node_childadder43" transform="translate( 110 0 )" style="cursor: e-resize;" display="none"><path id="kity_path_4035" fill="none" stroke="transparent" stroke-width="6" d="M2,-15L2,15"></path></g><path id="node_outline36" fill="#4D5386" d="M-5,-15h110a5,5,0,0,1,5,5v20a5,5,0,0,1,-5,5h-110a5,5,0,0,1,-5,-5v-20a5,5,0,0,1,5,-5z" stroke-width="0"></path><g id="node_text36" fill="#FFFFFF" transform="translate( 0 -3 )"><text id="kity_text_3937" text-rendering="inherit" dy="21" font-size="20" y="-10" x="0" font-weight="bold">计算机视觉</text></g></g><g id="minder_node2" transform="matrix( 1 0 0 1 -229 95 )"><g id="node_childadder28" transform="translate( 45 43 )" style="cursor: pointer;" display="none"><path id="kity_path_2378" fill="#0D7FFF" stroke="none" d="M10,0A10,10,0,1,1,-10,0A10,10,0,1,1,10,0"></path><path id="kity_path_2379" fill="none" stroke="white" stroke-width="2" d="M-6,0L6,0M0,-6L0,6"></path><path id="kity_path_2380" fill="transparent" stroke="none" d="M20,0A20,20,0,1,1,-20,0A20,20,0,1,1,20,0"></path></g><g id="node_childadder27" transform="translate( 117.5 0 )" style="cursor: e-resize;" display="none"><path id="kity_path_2376" fill="none" stroke="transparent" stroke-width="6" d="M2,-29L2,29"></path></g><path id="node_outline18" fill="#FFFFFF" stroke="#222222" d="M-23.5,-29h137a4,4,0,0,1,4,4v50a4,4,0,0,1,-4,4h-137a4,4,0,0,1,-4,-4v-50a4,4,0,0,1,4,-4z" stroke-width="2"></path><g id="node_text18" fill="#000000" transform="translate( 0 -2.75 )"><text id="kity_text_298" text-rendering="inherit" dy="19" font-size="18" y="-9" x="0">多维微积分</text></g></g><g id="minder_node30" transform="matrix( 1 0 0 1 -255 -462 )" opacity="1"><g id="node_childadder8" transform="translate( 50 -44 )" style="cursor: pointer;" display="none"><path id="kity_path_522" fill="#0D7FFF" stroke="none" d="M10,0A10,10,0,1,1,-10,0A10,10,0,1,1,10,0"></path><path id="kity_path_523" fill="none" stroke="white" stroke-width="2" d="M-6,0L6,0M0,-6L0,6"></path><path id="kity_path_524" fill="transparent" stroke="none" d="M20,0A20,20,0,1,1,-20,0A20,20,0,1,1,20,0"></path></g><g id="node_childadder7" transform="translate( 127.5 0 )" style="cursor: e-resize;" display="none"><path id="kity_path_520" fill="none" stroke="transparent" stroke-width="6" d="M2,-30L2,30"></path></g><path id="node_outline22" fill="#4D5386" stroke="#222222" d="M-23.5,-30h147a4,4,0,0,1,4,4v52a4,4,0,0,1,-4,4h-147a4,4,0,0,1,-4,-4v-52a4,4,0,0,1,4,-4z" stroke-width="2"></path><g id="node_text22" fill="#FFFFFF" transform="translate( 0 -3 )"><text id="kity_text_389" text-rendering="inherit" dy="21" font-size="20" y="-10" x="0" font-weight="bold">概率图模型</text></g></g><g id="minder_node3" transform="matrix( 1 0 0 1 -62 95 )"><g id="node_childadder34" transform="translate( 36.5 43 )" style="cursor: pointer;" display="none"><path id="kity_path_2532" fill="#0D7FFF" stroke="none" d="M10,0A10,10,0,1,1,-10,0A10,10,0,1,1,10,0"></path><path id="kity_path_2533" fill="none" stroke="white" stroke-width="2" d="M-6,0L6,0M0,-6L0,6"></path><path id="kity_path_2534" fill="transparent" stroke="none" d="M20,0A20,20,0,1,1,-20,0A20,20,0,1,1,20,0"></path></g><g id="node_childadder33" transform="translate( 100.5 0 )" style="cursor: e-resize;" display="none"><path id="kity_path_2530" fill="none" stroke="transparent" stroke-width="6" d="M2,-29L2,29"></path></g><path id="node_outline19" fill="#FFFFFF" stroke="#222222" d="M-23.5,-29h120a4,4,0,0,1,4,4v50a4,4,0,0,1,-4,4h-120a4,4,0,0,1,-4,-4v-50a4,4,0,0,1,4,-4z" stroke-width="2"></path><g id="node_text19" fill="#000000" transform="translate( 0 -2.75 )"><text id="kity_text_300" text-rendering="inherit" dy="19" font-size="18" y="-9" x="0">线性代数</text></g></g><g id="minder_node4" transform="matrix( 1 0 0 1 88 95 )"><g id="node_childadder32" transform="translate( 27 43 )" style="cursor: pointer;" display="none"><path id="kity_path_2517" fill="#0D7FFF" stroke="none" d="M10,0A10,10,0,1,1,-10,0A10,10,0,1,1,10,0"></path><path id="kity_path_2518" fill="none" stroke="white" stroke-width="2" d="M-6,0L6,0M0,-6L0,6"></path><path id="kity_path_2519" fill="transparent" stroke="none" d="M20,0A20,20,0,1,1,-20,0A20,20,0,1,1,20,0"></path></g><g id="node_childadder31" transform="translate( 81.5 0 )" style="cursor: e-resize;" display="none"><path id="kity_path_2515" fill="none" stroke="transparent" stroke-width="6" d="M2,-29L2,29"></path></g><path id="node_outline20" fill="#FFFFFF" stroke="#222222" d="M-23.5,-29h101a4,4,0,0,1,4,4v50a4,4,0,0,1,-4,4h-101a4,4,0,0,1,-4,-4v-50a4,4,0,0,1,4,-4z" stroke-width="2"></path><g id="node_text20" fill="#000000" transform="translate( 0 -2.75 )"><text id="kity_text_302" text-rendering="inherit" dy="19" font-size="18" y="-9" x="0">概率论</text></g></g><g id="minder_node1" transform="matrix( 1 0 0 1 0 0 )"><g id="node_childadder16" transform="translate( 40 44 )" style="cursor: pointer;" display="none"><path id="kity_path_698" fill="#0D7FFF" stroke="none" d="M10,0A10,10,0,1,1,-10,0A10,10,0,1,1,10,0"></path><path id="kity_path_699" fill="none" stroke="white" stroke-width="2" d="M-6,0L6,0M0,-6L0,6"></path><path id="kity_path_700" fill="transparent" stroke="none" d="M20,0A20,20,0,1,1,-20,0A20,20,0,1,1,20,0"></path></g><g id="node_childadder15" transform="translate( 112 0 )" style="cursor: e-resize;" display="none"><path id="kity_path_696" fill="none" stroke="transparent" stroke-width="6" d="M2,-31L2,31"></path></g><path id="node_outline1" fill="#002060" d="M-28,-31h136a4,4,0,0,1,4,4v54a4,4,0,0,1,-4,4h-136a4,4,0,0,1,-4,-4v-54a4,4,0,0,1,4,-4z" stroke-width="0"></path><g id="node_text1" fill="white" transform="translate( 0 -3 )"><text id="kity_text_72" text-rendering="inherit" dy="21" font-size="20" font-weight="bold" y="-10" x="0">数学基础</text></g></g><g id="minder_node13" transform="matrix( 1 0 0 1 800 -340 )"><g id="node_childadder64" transform="translate( 179 0 )" style="cursor: pointer;" display="none"><path id="kity_path_17165" fill="#0D7FFF" stroke="none" d="M10,0A10,10,0,1,1,-10,0A10,10,0,1,1,10,0"></path><path id="kity_path_17166" fill="none" stroke="white" stroke-width="2" d="M-6,0L6,0M0,-6L0,6"></path><path id="kity_path_17167" fill="transparent" stroke="none" d="M20,0A20,20,0,1,1,-20,0A20,20,0,1,1,20,0"></path></g><g id="node_childadder63" transform="translate( 166 0 )" style="cursor: e-resize;" display="none"><path id="kity_path_17163" fill="none" stroke="transparent" stroke-width="6" d="M2,-32L2,32"></path></g><path id="node_outline13" fill="#4D5386" d="M-28,-32h190a4,4,0,0,1,4,4v56a4,4,0,0,1,-4,4h-190a4,4,0,0,1,-4,-4v-56a4,4,0,0,1,4,-4z" stroke-width="0"></path><g id="node_text13" fill="white" transform="translate( 0 -3 )"><text id="kity_text_172" text-rendering="inherit" dy="21" font-size="20" font-weight="bold" y="-10" x="0">计算机系统</text></g><a id="kity_a_37605" xlink:href="../core/syst/contents2.html#computer-systems" target="_blank" xlink:title="../core/syst/contents2.html#computer-systems" transform="translate( 112 -5 )" style="cursor: pointer;"><path id="kity_path_37607" fill="rgba(255, 255, 255, 0)" stroke="none" d="M2,-6h16a4,4,0,0,1,4,4v14a4,4,0,0,1,-4,4h-16a4,4,0,0,1,-4,-4v-14a4,4,0,0,1,4,-4z"></path><path id="kity_path_37606" fill="#666" stroke="none" d="M16.614,10.224h-1.278c-1.668,0-3.07-1.07-3.599-2.556h4.877c0.707,0,1.278-0.571,1.278-1.278V3.834 c0-0.707-0.571-1.278-1.278-1.278h-4.877C12.266,1.071,13.668,0,15.336,0h1.278c2.116,0,3.834,1.716,3.834,3.834V6.39 C20.448,8.508,18.73,10.224,16.614,10.224z M5.112,5.112c0-0.707,0.573-1.278,1.278-1.278h7.668c0.707,0,1.278,0.571,1.278,1.278 S14.765,6.39,14.058,6.39H6.39C5.685,6.39,5.112,5.819,5.112,5.112z M2.556,3.834V6.39c0,0.707,0.573,1.278,1.278,1.278h4.877 c-0.528,1.486-1.932,2.556-3.599,2.556H3.834C1.716,10.224,0,8.508,0,6.39V3.834C0,1.716,1.716,0,3.834,0h1.278 c1.667,0,3.071,1.071,3.599,2.556H3.834C3.129,2.556,2.556,3.127,2.556,3.834z"></path></a></g><g id="minder_node9" transform="matrix( 1 0 0 1 743 -191 )"><g id="node_childadder40" transform="translate( 67 45 )" style="cursor: pointer;" display="none"><path id="kity_path_3625" fill="#0D7FFF" stroke="none" d="M10,0A10,10,0,1,1,-10,0A10,10,0,1,1,10,0"></path><path id="kity_path_3626" fill="none" stroke="white" stroke-width="2" d="M-6,0L6,0M0,-6L0,6"></path><path id="kity_path_3627" fill="transparent" stroke="none" d="M20,0A20,20,0,1,1,-20,0A20,20,0,1,1,20,0"></path></g><g id="node_childadder39" transform="translate( 166 0 )" style="cursor: e-resize;" display="none"><path id="kity_path_3623" fill="none" stroke="transparent" stroke-width="6" d="M2,-32L2,32"></path></g><path id="node_outline5" fill="#0043A7" d="M-28,-32h190a4,4,0,0,1,4,4v56a4,4,0,0,1,-4,4h-190a4,4,0,0,1,-4,-4v-56a4,4,0,0,1,4,-4z" stroke-width="0"></path><g id="node_text5" fill="white" transform="translate( 0 -3 )"><text id="kity_text_115" text-rendering="inherit" dy="21" font-size="20" font-weight="bold" y="-10" x="0">计算机组成</text></g><a id="kity_a_37505" xlink:href="../core/contents_others.html#computation-structures" target="_blank" xlink:title="../core/contents_others.html#computation-structures" transform="translate( 112 -5 )" style="cursor: pointer;"><path id="kity_path_37507" fill="rgba(255, 255, 255, 0)" stroke="none" d="M2,-6h16a4,4,0,0,1,4,4v14a4,4,0,0,1,-4,4h-16a4,4,0,0,1,-4,-4v-14a4,4,0,0,1,4,-4z"></path><path id="kity_path_37506" fill="#666" stroke="none" d="M16.614,10.224h-1.278c-1.668,0-3.07-1.07-3.599-2.556h4.877c0.707,0,1.278-0.571,1.278-1.278V3.834 c0-0.707-0.571-1.278-1.278-1.278h-4.877C12.266,1.071,13.668,0,15.336,0h1.278c2.116,0,3.834,1.716,3.834,3.834V6.39 C20.448,8.508,18.73,10.224,16.614,10.224z M5.112,5.112c0-0.707,0.573-1.278,1.278-1.278h7.668c0.707,0,1.278,0.571,1.278,1.278 S14.765,6.39,14.058,6.39H6.39C5.685,6.39,5.112,5.819,5.112,5.112z M2.556,3.834V6.39c0,0.707,0.573,1.278,1.278,1.278h4.877 c-0.528,1.486-1.932,2.556-3.599,2.556H3.834C1.716,10.224,0,8.508,0,6.39V3.834C0,1.716,1.716,0,3.834,0h1.278 c1.667,0,3.071,1.071,3.599,2.556H3.834C3.129,2.556,2.556,3.127,2.556,3.834z"></path></a></g><g id="minder_node6" transform="matrix( 1 0 0 1 348 -3 )"><g id="node_childadder18" transform="translate( 87 45 )" style="cursor: pointer;" display="none"><path id="kity_path_708" fill="#0D7FFF" stroke="none" d="M10,0A10,10,0,1,1,-10,0A10,10,0,1,1,10,0"></path><path id="kity_path_709" fill="none" stroke="white" stroke-width="2" d="M-6,0L6,0M0,-6L0,6"></path><path id="kity_path_710" fill="transparent" stroke="none" d="M20,0A20,20,0,1,1,-20,0A20,20,0,1,1,20,0"></path></g><g id="node_childadder17" transform="translate( 206 0 )" style="cursor: e-resize;" display="none"><path id="kity_path_706" fill="none" stroke="transparent" stroke-width="6" d="M2,-32L2,32"></path></g><path id="node_outline2" fill="#002060" d="M-28,-32h230a4,4,0,0,1,4,4v56a4,4,0,0,1,-4,4h-230a4,4,0,0,1,-4,-4v-56a4,4,0,0,1,4,-4z" stroke-width="0"></path><g id="node_text2" fill="white" transform="translate( 0 -3 )"><text id="kity_text_97" text-rendering="inherit" dy="21" font-size="20" font-weight="bold" y="-10" x="0">计算机科学导论</text></g><a id="kity_a_37693" xlink:href="../basic/introduction/contents0.html" target="_blank" xlink:title="../basic/introduction/contents0.html" transform="translate( 152 -5 )" style="cursor: pointer;"><path id="kity_path_37695" fill="rgba(255, 255, 255, 0)" stroke="none" d="M2,-6h16a4,4,0,0,1,4,4v14a4,4,0,0,1,-4,4h-16a4,4,0,0,1,-4,-4v-14a4,4,0,0,1,4,-4z"></path><path id="kity_path_37694" fill="#666" stroke="none" d="M16.614,10.224h-1.278c-1.668,0-3.07-1.07-3.599-2.556h4.877c0.707,0,1.278-0.571,1.278-1.278V3.834 c0-0.707-0.571-1.278-1.278-1.278h-4.877C12.266,1.071,13.668,0,15.336,0h1.278c2.116,0,3.834,1.716,3.834,3.834V6.39 C20.448,8.508,18.73,10.224,16.614,10.224z M5.112,5.112c0-0.707,0.573-1.278,1.278-1.278h7.668c0.707,0,1.278,0.571,1.278,1.278 S14.765,6.39,14.058,6.39H6.39C5.685,6.39,5.112,5.819,5.112,5.112z M2.556,3.834V6.39c0,0.707,0.573,1.278,1.278,1.278h4.877 c-0.528,1.486-1.932,2.556-3.599,2.556H3.834C1.716,10.224,0,8.508,0,6.39V3.834C0,1.716,1.716,0,3.834,0h1.278 c1.667,0,3.071,1.071,3.599,2.556H3.834C3.129,2.556,2.556,3.127,2.556,3.834z"></path></a></g><g id="minder_node11" transform="matrix( 1 0 0 1 638 -370 )" opacity="1"><g id="node_childadder30" transform="translate( 40 44 )" style="cursor: pointer;" display="none"><path id="kity_path_2393" fill="#0D7FFF" stroke="none" d="M10,0A10,10,0,1,1,-10,0A10,10,0,1,1,10,0"></path><path id="kity_path_2394" fill="none" stroke="white" stroke-width="2" d="M-6,0L6,0M0,-6L0,6"></path><path id="kity_path_2395" fill="transparent" stroke="none" d="M20,0A20,20,0,1,1,-20,0A20,20,0,1,1,20,0"></path></g><g id="node_childadder29" transform="translate( 112 0 )" style="cursor: e-resize;" display="none"><path id="kity_path_2391" fill="none" stroke="transparent" stroke-width="6" d="M2,-31L2,31"></path></g><path id="node_outline7" fill="#4D5386" d="M-28,-31h136a4,4,0,0,1,4,4v54a4,4,0,0,1,-4,4h-136a4,4,0,0,1,-4,-4v-54a4,4,0,0,1,4,-4z" stroke-width="0"></path><g id="node_text7" fill="white" transform="translate( 0 -3 )"><text id="kity_text_132" text-rendering="inherit" dy="21" font-size="20" font-weight="bold" y="-10" x="0">计算理论</text></g><g id="kity_g_133" transform="translate( 90 0 )" style="cursor: pointer;" display="none"><path id="kity_path_134" fill="transparent" stroke="none" d="M2.5,-8.5h12a2,2,0,0,1,2,2v13a2,2,0,0,1,-2,2h-12a2,2,0,0,1,-2,-2v-13a2,2,0,0,1,2,-2z"></path><path id="kity_path_135" fill="white" stroke="none" d="M9,9H3V8h6L9,9L9,9z M9,7H3V6h6V7z M9,5H3V4h6V5z M8.5,11H2V2h8v7.5 M9,12l2-2V1H1v11" transform="translate( 2.5 -6.5 )"></path></g><a id="kity_a_36432" xlink:href="https://www.com/jsll" target="_blank" xlink:title="https://www.com/jsll" transform="translate( 92 -5 )" style="cursor: pointer;" display="none"><path id="kity_path_36434" fill="rgba(255, 255, 255, 0)" stroke="none" d="M2,-6h16a4,4,0,0,1,4,4v14a4,4,0,0,1,-4,4h-16a4,4,0,0,1,-4,-4v-14a4,4,0,0,1,4,-4z"></path><path id="kity_path_36433" fill="#666" stroke="none" d="M16.614,10.224h-1.278c-1.668,0-3.07-1.07-3.599-2.556h4.877c0.707,0,1.278-0.571,1.278-1.278V3.834 c0-0.707-0.571-1.278-1.278-1.278h-4.877C12.266,1.071,13.668,0,15.336,0h1.278c2.116,0,3.834,1.716,3.834,3.834V6.39 C20.448,8.508,18.73,10.224,16.614,10.224z M5.112,5.112c0-0.707,0.573-1.278,1.278-1.278h7.668c0.707,0,1.278,0.571,1.278,1.278 S14.765,6.39,14.058,6.39H6.39C5.685,6.39,5.112,5.819,5.112,5.112z M2.556,3.834V6.39c0,0.707,0.573,1.278,1.278,1.278h4.877 c-0.528,1.486-1.932,2.556-3.599,2.556H3.834C1.716,10.224,0,8.508,0,6.39V3.834C0,1.716,1.716,0,3.834,0h1.278 c1.667,0,3.071,1.071,3.599,2.556H3.834C3.129,2.556,2.556,3.127,2.556,3.834z"></path></a></g><g id="minder_node55" transform="matrix( 1 0 0 1 602 -631 )" opacity="1"><g id="node_childadder62" transform="translate( 97 45 )" style="cursor: pointer;" display="none"><path id="kity_path_16564" fill="#0D7FFF" stroke="none" d="M10,0A10,10,0,1,1,-10,0A10,10,0,1,1,10,0"></path><path id="kity_path_16565" fill="none" stroke="white" stroke-width="2" d="M-6,0L6,0M0,-6L0,6"></path><path id="kity_path_16566" fill="transparent" stroke="none" d="M20,0A20,20,0,1,1,-20,0A20,20,0,1,1,20,0"></path></g><g id="node_childadder61" transform="translate( 226 0 )" style="cursor: e-resize;" display="none"><path id="kity_path_16562" fill="none" stroke="transparent" stroke-width="6" d="M2,-32L2,32"></path></g><path id="node_outline55" fill="#435FBC" d="M-28,-32h250a4,4,0,0,1,4,4v56a4,4,0,0,1,-4,4h-250a4,4,0,0,1,-4,-4v-56a4,4,0,0,1,4,-4z" stroke-width="0"></path><g id="node_text55" fill="white" transform="translate( 0 -3 )"><text id="kity_text_16419" text-rendering="inherit" dy="21" font-size="20" y="-10" x="0" font-weight="bold">并行架构（硬件）</text></g><a id="kity_a_38359" xlink:href="../advanced/hpc/contents1.html#parallel-computer-structures" target="_blank" xlink:title="../advanced/hpc/contents1.html#parallel-computer-structures" transform="translate( 172 -5 )" style="cursor: pointer;"><path id="kity_path_38361" fill="rgba(255, 255, 255, 0)" stroke="none" d="M2,-6h16a4,4,0,0,1,4,4v14a4,4,0,0,1,-4,4h-16a4,4,0,0,1,-4,-4v-14a4,4,0,0,1,4,-4z"></path><path id="kity_path_38360" fill="#666" stroke="none" d="M16.614,10.224h-1.278c-1.668,0-3.07-1.07-3.599-2.556h4.877c0.707,0,1.278-0.571,1.278-1.278V3.834 c0-0.707-0.571-1.278-1.278-1.278h-4.877C12.266,1.071,13.668,0,15.336,0h1.278c2.116,0,3.834,1.716,3.834,3.834V6.39 C20.448,8.508,18.73,10.224,16.614,10.224z M5.112,5.112c0-0.707,0.573-1.278,1.278-1.278h7.668c0.707,0,1.278,0.571,1.278,1.278 S14.765,6.39,14.058,6.39H6.39C5.685,6.39,5.112,5.819,5.112,5.112z M2.556,3.834V6.39c0,0.707,0.573,1.278,1.278,1.278h4.877 c-0.528,1.486-1.932,2.556-3.599,2.556H3.834C1.716,10.224,0,8.508,0,6.39V3.834C0,1.716,1.716,0,3.834,0h1.278 c1.667,0,3.071,1.071,3.599,2.556H3.834C3.129,2.556,2.556,3.127,2.556,3.834z"></path></a></g><g id="minder_node54" transform="matrix( 1 0 0 1 401 -631 )" opacity="1"><g id="node_childadder60" transform="translate( 57 45 )" style="cursor: pointer;" display="none"><path id="kity_path_16480" fill="#0D7FFF" stroke="none" d="M10,0A10,10,0,1,1,-10,0A10,10,0,1,1,10,0"></path><path id="kity_path_16481" fill="none" stroke="white" stroke-width="2" d="M-6,0L6,0M0,-6L0,6"></path><path id="kity_path_16482" fill="transparent" stroke="none" d="M20,0A20,20,0,1,1,-20,0A20,20,0,1,1,20,0"></path></g><g id="node_childadder59" transform="translate( 146 0 )" style="cursor: e-resize;" display="none"><path id="kity_path_16478" fill="none" stroke="transparent" stroke-width="6" d="M2,-32L2,32"></path></g><path id="node_outline54" fill="#435FBC" d="M-28,-32h170a4,4,0,0,1,4,4v56a4,4,0,0,1,-4,4h-170a4,4,0,0,1,-4,-4v-56a4,4,0,0,1,4,-4z" stroke-width="0"></path><g id="node_text54" fill="white" transform="translate( 0 -3 )"><text id="kity_text_16374" text-rendering="inherit" dy="21" font-size="20" y="-10" x="0" font-weight="bold">并行编译</text></g><a id="kity_a_38286" xlink:href="../advanced/hpc/contents1.html#parallel-programming" target="_blank" xlink:title="../advanced/hpc/contents1.html#parallel-programming" transform="translate( 92 -5 )" style="cursor: pointer;"><path id="kity_path_38288" fill="rgba(255, 255, 255, 0)" stroke="none" d="M2,-6h16a4,4,0,0,1,4,4v14a4,4,0,0,1,-4,4h-16a4,4,0,0,1,-4,-4v-14a4,4,0,0,1,4,-4z"></path><path id="kity_path_38287" fill="#666" stroke="none" d="M16.614,10.224h-1.278c-1.668,0-3.07-1.07-3.599-2.556h4.877c0.707,0,1.278-0.571,1.278-1.278V3.834 c0-0.707-0.571-1.278-1.278-1.278h-4.877C12.266,1.071,13.668,0,15.336,0h1.278c2.116,0,3.834,1.716,3.834,3.834V6.39 C20.448,8.508,18.73,10.224,16.614,10.224z M5.112,5.112c0-0.707,0.573-1.278,1.278-1.278h7.668c0.707,0,1.278,0.571,1.278,1.278 S14.765,6.39,14.058,6.39H6.39C5.685,6.39,5.112,5.819,5.112,5.112z M2.556,3.834V6.39c0,0.707,0.573,1.278,1.278,1.278h4.877 c-0.528,1.486-1.932,2.556-3.599,2.556H3.834C1.716,10.224,0,8.508,0,6.39V3.834C0,1.716,1.716,0,3.834,0h1.278 c1.667,0,3.071,1.071,3.599,2.556H3.834C3.129,2.556,2.556,3.127,2.556,3.834z"></path></a></g><g id="minder_node20" transform="matrix( 1 0 0 1 -134 -534 )" opacity="1"><g id="node_childadder22" transform="translate( 60 -44 )" style="cursor: pointer;" display="none"><path id="kity_path_850" fill="#0D7FFF" stroke="none" d="M10,0A10,10,0,1,1,-10,0A10,10,0,1,1,10,0"></path><path id="kity_path_851" fill="none" stroke="white" stroke-width="2" d="M-6,0L6,0M0,-6L0,6"></path><path id="kity_path_852" fill="transparent" stroke="none" d="M20,0A20,20,0,1,1,-20,0A20,20,0,1,1,20,0"></path></g><g id="node_childadder21" transform="translate( 147.5 0 )" style="cursor: e-resize;" display="none"><path id="kity_path_848" fill="none" stroke="transparent" stroke-width="6" d="M2,-30L2,30"></path></g><path id="node_outline15" fill="#4D5386" stroke="#222222" d="M-23.5,-30h167a4,4,0,0,1,4,4v52a4,4,0,0,1,-4,4h-167a4,4,0,0,1,-4,-4v-52a4,4,0,0,1,4,-4z" stroke-width="2"></path><g id="node_text15" fill="#FFFFFF" transform="translate( 0 -3 )"><text id="kity_text_229" text-rendering="inherit" dy="21" font-size="20" y="-10" x="0" font-weight="bold">深度学习概论</text></g></g><g id="minder_node10" transform="matrix( 1 0 0 1 391 -365 )" opacity="1"><g id="node_childadder26" transform="translate( 87 45 )" style="cursor: pointer;" display="none"><path id="kity_path_1700" fill="#0D7FFF" stroke="none" d="M10,0A10,10,0,1,1,-10,0A10,10,0,1,1,10,0"></path><path id="kity_path_1701" fill="none" stroke="white" stroke-width="2" d="M-6,0L6,0M0,-6L0,6"></path><path id="kity_path_1702" fill="transparent" stroke="none" d="M20,0A20,20,0,1,1,-20,0A20,20,0,1,1,20,0"></path></g><g id="node_childadder25" transform="translate( 206 0 )" style="cursor: e-resize;" display="none"><path id="kity_path_1698" fill="none" stroke="transparent" stroke-width="6" d="M2,-32L2,32"></path></g><path id="node_outline6" fill="#4D5386" d="M-28,-32h230a4,4,0,0,1,4,4v56a4,4,0,0,1,-4,4h-230a4,4,0,0,1,-4,-4v-56a4,4,0,0,1,4,-4z" stroke-width="0"></path><g id="node_text6" fill="white" transform="translate( 0 -3 )"><text id="kity_text_123" text-rendering="inherit" dy="21" font-size="20" font-weight="bold" y="-10" x="0">算法设计与分析</text></g><a id="kity_a_23914" xlink:href="../core/algor/contents1.html#design-and-analysis-of-algorithms-6-046" target="_blank" xlink:title="../core/algor/contents1.html#design-and-analysis-of-algorithms-6-046" transform="translate( 152 -5 )" style="cursor: pointer;"><path id="kity_path_23916" fill="rgba(255, 255, 255, 0)" stroke="none" d="M2,-6h16a4,4,0,0,1,4,4v14a4,4,0,0,1,-4,4h-16a4,4,0,0,1,-4,-4v-14a4,4,0,0,1,4,-4z"></path><path id="kity_path_23915" fill="#666" stroke="none" d="M16.614,10.224h-1.278c-1.668,0-3.07-1.07-3.599-2.556h4.877c0.707,0,1.278-0.571,1.278-1.278V3.834 c0-0.707-0.571-1.278-1.278-1.278h-4.877C12.266,1.071,13.668,0,15.336,0h1.278c2.116,0,3.834,1.716,3.834,3.834V6.39 C20.448,8.508,18.73,10.224,16.614,10.224z M5.112,5.112c0-0.707,0.573-1.278,1.278-1.278h7.668c0.707,0,1.278,0.571,1.278,1.278 S14.765,6.39,14.058,6.39H6.39C5.685,6.39,5.112,5.819,5.112,5.112z M2.556,3.834V6.39c0,0.707,0.573,1.278,1.278,1.278h4.877 c-0.528,1.486-1.932,2.556-3.599,2.556H3.834C1.716,10.224,0,8.508,0,6.39V3.834C0,1.716,1.716,0,3.834,0h1.278 c1.667,0,3.071,1.071,3.599,2.556H3.834C3.129,2.556,2.556,3.127,2.556,3.834z"></path></a></g><g id="minder_node8" transform="matrix( 1 0 0 1 472 -190 )"><g id="node_childadder24" transform="translate( 87 45 )" style="cursor: pointer;" display="none"><path id="kity_path_1595" fill="#0D7FFF" stroke="none" d="M10,0A10,10,0,1,1,-10,0A10,10,0,1,1,10,0"></path><path id="kity_path_1596" fill="none" stroke="white" stroke-width="2" d="M-6,0L6,0M0,-6L0,6"></path><path id="kity_path_1597" fill="transparent" stroke="none" d="M20,0A20,20,0,1,1,-20,0A20,20,0,1,1,20,0"></path></g><g id="node_childadder23" transform="translate( 206 0 )" style="cursor: e-resize;" display="none"><path id="kity_path_1593" fill="none" stroke="transparent" stroke-width="6" d="M2,-32L2,32"></path></g><path id="node_outline4" fill="#0043A7" d="M-28,-32h230a4,4,0,0,1,4,4v56a4,4,0,0,1,-4,4h-230a4,4,0,0,1,-4,-4v-56a4,4,0,0,1,4,-4z" stroke-width="0"></path><g id="node_text4" fill="white" transform="translate( 0 -3 )"><text id="kity_text_108" text-rendering="inherit" dy="21" font-size="20" font-weight="bold" y="-10" x="0">算法与数据结构</text></g><a id="kity_a_37400" xlink:href="../core/algor/contents1.html#algorithms" target="_blank" xlink:title="../core/algor/contents1.html#algorithms" transform="translate( 152 -5 )" style="cursor: pointer;"><path id="kity_path_37402" fill="rgba(255, 255, 255, 0)" stroke="none" d="M2,-6h16a4,4,0,0,1,4,4v14a4,4,0,0,1,-4,4h-16a4,4,0,0,1,-4,-4v-14a4,4,0,0,1,4,-4z"></path><path id="kity_path_37401" fill="#666" stroke="none" d="M16.614,10.224h-1.278c-1.668,0-3.07-1.07-3.599-2.556h4.877c0.707,0,1.278-0.571,1.278-1.278V3.834 c0-0.707-0.571-1.278-1.278-1.278h-4.877C12.266,1.071,13.668,0,15.336,0h1.278c2.116,0,3.834,1.716,3.834,3.834V6.39 C20.448,8.508,18.73,10.224,16.614,10.224z M5.112,5.112c0-0.707,0.573-1.278,1.278-1.278h7.668c0.707,0,1.278,0.571,1.278,1.278 S14.765,6.39,14.058,6.39H6.39C5.685,6.39,5.112,5.819,5.112,5.112z M2.556,3.834V6.39c0,0.707,0.573,1.278,1.278,1.278h4.877 c-0.528,1.486-1.932,2.556-3.599,2.556H3.834C1.716,10.224,0,8.508,0,6.39V3.834C0,1.716,1.716,0,3.834,0h1.278 c1.667,0,3.071,1.071,3.599,2.556H3.834C3.129,2.556,2.556,3.127,2.556,3.834z"></path></a></g><g id="minder_node7" transform="matrix( 1 0 0 1 236 -192 )"><g id="node_childadder36" transform="translate( 77 45 )" style="cursor: pointer;" display="none"><path id="kity_path_3499" fill="#0D7FFF" stroke="none" d="M10,0A10,10,0,1,1,-10,0A10,10,0,1,1,10,0"></path><path id="kity_path_3500" fill="none" stroke="white" stroke-width="2" d="M-6,0L6,0M0,-6L0,6"></path><path id="kity_path_3501" fill="transparent" stroke="none" d="M20,0A20,20,0,1,1,-20,0A20,20,0,1,1,20,0"></path></g><g id="node_childadder35" transform="translate( 186 0 )" style="cursor: e-resize;" display="none"><path id="kity_path_3497" fill="none" stroke="transparent" stroke-width="6" d="M2,-32L2,32"></path></g><path id="node_outline3" fill="#0043A7" d="M-28,-32h210a4,4,0,0,1,4,4v56a4,4,0,0,1,-4,4h-210a4,4,0,0,1,-4,-4v-56a4,4,0,0,1,4,-4z" stroke-width="0"></path><g id="node_text3" fill="white" transform="translate( 0 -3 )"><text id="kity_text_102" text-rendering="inherit" dy="21" font-size="20" font-weight="bold" y="-10" x="0">程序设计基础</text></g><a id="kity_a_37776" xlink:href="../core/prog/contents0.html#programming" target="_blank" xlink:title="../core/prog/contents0.html#programming" transform="translate( 132 -5 )" style="cursor: pointer;"><path id="kity_path_37778" fill="rgba(255, 255, 255, 0)" stroke="none" d="M2,-6h16a4,4,0,0,1,4,4v14a4,4,0,0,1,-4,4h-16a4,4,0,0,1,-4,-4v-14a4,4,0,0,1,4,-4z"></path><path id="kity_path_37777" fill="#666" stroke="none" d="M16.614,10.224h-1.278c-1.668,0-3.07-1.07-3.599-2.556h4.877c0.707,0,1.278-0.571,1.278-1.278V3.834 c0-0.707-0.571-1.278-1.278-1.278h-4.877C12.266,1.071,13.668,0,15.336,0h1.278c2.116,0,3.834,1.716,3.834,3.834V6.39 C20.448,8.508,18.73,10.224,16.614,10.224z M5.112,5.112c0-0.707,0.573-1.278,1.278-1.278h7.668c0.707,0,1.278,0.571,1.278,1.278 S14.765,6.39,14.058,6.39H6.39C5.685,6.39,5.112,5.819,5.112,5.112z M2.556,3.834V6.39c0,0.707,0.573,1.278,1.278,1.278h4.877 c-0.528,1.486-1.932,2.556-3.599,2.556H3.834C1.716,10.224,0,8.508,0,6.39V3.834C0,1.716,1.716,0,3.834,0h1.278 c1.667,0,3.071,1.071,3.599,2.556H3.834C3.129,2.556,2.556,3.127,2.556,3.834z"></path></a></g><g id="minder_node35" transform="matrix( 1 0 0 1 -204 -604 )"><g id="node_childadder42" transform="translate( 60 -28 )" style="cursor: pointer;" display="none"><path id="kity_path_3981" fill="#0D7FFF" stroke="none" d="M10,0A10,10,0,1,1,-10,0A10,10,0,1,1,10,0"></path><path id="kity_path_3982" fill="none" stroke="white" stroke-width="2" d="M-6,0L6,0M0,-6L0,6"></path><path id="kity_path_3983" fill="transparent" stroke="none" d="M20,0A20,20,0,1,1,-20,0A20,20,0,1,1,20,0"></path></g><g id="node_childadder41" transform="translate( 130 0 )" style="cursor: e-resize;" display="none"><path id="kity_path_3979" fill="none" stroke="transparent" stroke-width="6" d="M2,-15L2,15"></path></g><path id="node_outline35" fill="#4D5386" d="M-5,-15h130a5,5,0,0,1,5,5v20a5,5,0,0,1,-5,5h-130a5,5,0,0,1,-5,-5v-20a5,5,0,0,1,5,-5z" stroke-width="0"></path><g id="node_text35" fill="#FFFFFF" transform="translate( 0 -3 )"><text id="kity_text_3896" text-rendering="inherit" dy="21" font-size="20" y="-10" x="0" font-weight="bold">自然语言处理</text></g></g><g id="minder_node19" transform="matrix( 1 0 0 1 -298 -300 )" opacity="1"><g id="node_childadder6" transform="translate( 121.5 -45 )" style="cursor: pointer;" display="none"><path id="kity_path_373" fill="#0D7FFF" stroke="none" d="M10,0A10,10,0,1,1,-10,0A10,10,0,1,1,10,0"></path><path id="kity_path_374" fill="none" stroke="white" stroke-width="2" d="M-6,0L6,0M0,-6L0,6"></path><path id="kity_path_375" fill="transparent" stroke="none" d="M20,0A20,20,0,1,1,-20,0A20,20,0,1,1,20,0"></path></g><g id="node_childadder5" transform="translate( 275 0 )" style="cursor: e-resize;" display="none"><path id="kity_path_371" fill="none" stroke="transparent" stroke-width="6" d="M2,-32L2,32"></path></g><path id="node_outline17" fill="#4D5386" d="M-28,-32h299a4,4,0,0,1,4,4v56a4,4,0,0,1,-4,4h-299a4,4,0,0,1,-4,-4v-56a4,4,0,0,1,4,-4z" stroke-width="0"></path><g id="node_text17" fill="white" transform="translate( 0 -3 )"><text id="kity_text_233" text-rendering="inherit" dy="21" font-size="20" font-weight="bold" y="-10" x="0">机器学习/人工智能导论</text></g><a id="kity_a_40056" xlink:href="../advanced/ml/contents2.html#introduction-to-ml" target="_blank" xlink:title="../advanced/ml/contents2.html#introduction-to-ml" transform="translate( 221 -5 )" style="cursor: pointer;"><path id="kity_path_40058" fill="rgba(255, 255, 255, 0)" stroke="none" d="M2,-6h16a4,4,0,0,1,4,4v14a4,4,0,0,1,-4,4h-16a4,4,0,0,1,-4,-4v-14a4,4,0,0,1,4,-4z"></path><path id="kity_path_40057" fill="#666" stroke="none" d="M16.614,10.224h-1.278c-1.668,0-3.07-1.07-3.599-2.556h4.877c0.707,0,1.278-0.571,1.278-1.278V3.834 c0-0.707-0.571-1.278-1.278-1.278h-4.877C12.266,1.071,13.668,0,15.336,0h1.278c2.116,0,3.834,1.716,3.834,3.834V6.39 C20.448,8.508,18.73,10.224,16.614,10.224z M5.112,5.112c0-0.707,0.573-1.278,1.278-1.278h7.668c0.707,0,1.278,0.571,1.278,1.278 S14.765,6.39,14.058,6.39H6.39C5.685,6.39,5.112,5.819,5.112,5.112z M2.556,3.834V6.39c0,0.707,0.573,1.278,1.278,1.278h4.877 c-0.528,1.486-1.932,2.556-3.599,2.556H3.834C1.716,10.224,0,8.508,0,6.39V3.834C0,1.716,1.716,0,3.834,0h1.278 c1.667,0,3.071,1.071,3.599,2.556H3.834C3.129,2.556,2.556,3.127,2.556,3.834z"></path></a></g><g id="minder_node31" transform="matrix( 1 0 0 1 -600 -398 )" opacity="1"><g id="node_childadder12" transform="translate( 74.5 -45 )" style="cursor: pointer;" display="none"><path id="kity_path_562" fill="#0D7FFF" stroke="none" d="M10,0A10,10,0,1,1,-10,0A10,10,0,1,1,10,0"></path><path id="kity_path_563" fill="none" stroke="white" stroke-width="2" d="M-6,0L6,0M0,-6L0,6"></path><path id="kity_path_564" fill="transparent" stroke="none" d="M20,0A20,20,0,1,1,-20,0A20,20,0,1,1,20,0"></path></g><g id="node_childadder11" transform="translate( 176.5 0 )" style="cursor: e-resize;" display="none"><path id="kity_path_560" fill="none" stroke="transparent" stroke-width="6" d="M2,-31L2,31"></path></g><path id="node_outline23" fill="#4D5386" stroke="#222222" d="M-23.5,-31h196a4,4,0,0,1,4,4v54a4,4,0,0,1,-4,4h-196a4,4,0,0,1,-4,-4v-54a4,4,0,0,1,4,-4z" stroke-width="2"></path><g id="node_text23" fill="#FFFFFF" transform="translate( 0 -3 )"><text id="kity_text_428" text-rendering="inherit" dy="21" font-size="20" y="-10" x="0" font-weight="bold">数据科学导论</text></g><a id="kity_a_40183" xlink:href="../core/syst/contents2.html#securityjkx" target="_blank" xlink:title="../core/syst/contents2.html#securityjkx" transform="translate( 127 -5 )" style="cursor: pointer;"><path id="kity_path_40185" fill="rgba(255, 255, 255, 0)" stroke="none" d="M2,-6h16a4,4,0,0,1,4,4v14a4,4,0,0,1,-4,4h-16a4,4,0,0,1,-4,-4v-14a4,4,0,0,1,4,-4z"></path><path id="kity_path_40184" fill="#666" stroke="none" d="M16.614,10.224h-1.278c-1.668,0-3.07-1.07-3.599-2.556h4.877c0.707,0,1.278-0.571,1.278-1.278V3.834 c0-0.707-0.571-1.278-1.278-1.278h-4.877C12.266,1.071,13.668,0,15.336,0h1.278c2.116,0,3.834,1.716,3.834,3.834V6.39 C20.448,8.508,18.73,10.224,16.614,10.224z M5.112,5.112c0-0.707,0.573-1.278,1.278-1.278h7.668c0.707,0,1.278,0.571,1.278,1.278 S14.765,6.39,14.058,6.39H6.39C5.685,6.39,5.112,5.819,5.112,5.112z M2.556,3.834V6.39c0,0.707,0.573,1.278,1.278,1.278h4.877 c-0.528,1.486-1.932,2.556-3.599,2.556H3.834C1.716,10.224,0,8.508,0,6.39V3.834C0,1.716,1.716,0,3.834,0h1.278 c1.667,0,3.071,1.071,3.599,2.556H3.834C3.129,2.556,2.556,3.127,2.556,3.834z"></path></a></g><g id="minder_node41" transform="matrix( 1 0 0 1 -608 -461 )"><g id="node_childadder50" transform="translate( 30 -28 )" style="cursor: pointer;" display="none"><path id="kity_path_9761" fill="#0D7FFF" stroke="none" d="M10,0A10,10,0,1,1,-10,0A10,10,0,1,1,10,0"></path><path id="kity_path_9762" fill="none" stroke="white" stroke-width="2" d="M-6,0L6,0M0,-6L0,6"></path><path id="kity_path_9763" fill="transparent" stroke="none" d="M20,0A20,20,0,1,1,-20,0A20,20,0,1,1,20,0"></path></g><g id="node_childadder49" transform="translate( 70 0 )" style="cursor: e-resize;" display="none"><path id="kity_path_9759" fill="none" stroke="transparent" stroke-width="6" d="M2,-15L2,15"></path></g><path id="node_outline41" fill="#4D5386" d="M-5,-15h27a5,5,0,0,1,5,5v20a5,5,0,0,1,-5,5h-27a5,5,0,0,1,-5,-5v-20a5,5,0,0,1,5,-5z" stroke-width="0"></path><g id="node_text41" fill="#FFFFFF" transform="translate( 0 -3 )"><text id="kity_text_9596" text-rendering="inherit" dy="21" font-size="20" y="-10" x="0" font-weight="bold">...</text></g></g><g id="minder_node42" transform="matrix( 1 0 0 1 -551 -462 )"><g id="node_childadder48" transform="translate( 54.5 -29 )" style="cursor: pointer;" display="none"><path id="kity_path_9682" fill="#0D7FFF" stroke="none" d="M10,0A10,10,0,1,1,-10,0A10,10,0,1,1,10,0"></path><path id="kity_path_9683" fill="none" stroke="white" stroke-width="2" d="M-6,0L6,0M0,-6L0,6"></path><path id="kity_path_9684" fill="transparent" stroke="none" d="M20,0A20,20,0,1,1,-20,0A20,20,0,1,1,20,0"></path></g><g id="node_childadder47" transform="translate( 119 0 )" style="cursor: e-resize;" display="none"><path id="kity_path_9680" fill="none" stroke="transparent" stroke-width="6" d="M2,-16L2,16"></path></g><path id="node_outline42" fill="#4D5386" d="M-5,-16h119a5,5,0,0,1,5,5v22a5,5,0,0,1,-5,5h-119a5,5,0,0,1,-5,-5v-22a5,5,0,0,1,5,-5z" stroke-width="0"></path><g id="node_text42" fill="#FFFFFF" transform="translate( 0 -3 )"><text id="kity_text_9639" text-rendering="inherit" dy="21" font-size="20" y="-10" x="0" font-weight="bold">数据挖掘</text></g><a id="kity_a_40252" xlink:href="../advanced/ml/contents2.html#data-science" target="_blank" xlink:title="../advanced/ml/contents2.html#data-science" transform="translate( 87 -5 )" style="cursor: pointer;"><path id="kity_path_40254" fill="rgba(255, 255, 255, 0)" stroke="none" d="M2,-6h16a4,4,0,0,1,4,4v14a4,4,0,0,1,-4,4h-16a4,4,0,0,1,-4,-4v-14a4,4,0,0,1,4,-4z"></path><path id="kity_path_40253" fill="#666" stroke="none" d="M16.614,10.224h-1.278c-1.668,0-3.07-1.07-3.599-2.556h4.877c0.707,0,1.278-0.571,1.278-1.278V3.834 c0-0.707-0.571-1.278-1.278-1.278h-4.877C12.266,1.071,13.668,0,15.336,0h1.278c2.116,0,3.834,1.716,3.834,3.834V6.39 C20.448,8.508,18.73,10.224,16.614,10.224z M5.112,5.112c0-0.707,0.573-1.278,1.278-1.278h7.668c0.707,0,1.278,0.571,1.278,1.278 S14.765,6.39,14.058,6.39H6.39C5.685,6.39,5.112,5.819,5.112,5.112z M2.556,3.834V6.39c0,0.707,0.573,1.278,1.278,1.278h4.877 c-0.528,1.486-1.932,2.556-3.599,2.556H3.834C1.716,10.224,0,8.508,0,6.39V3.834C0,1.716,1.716,0,3.834,0h1.278 c1.667,0,3.071,1.071,3.599,2.556H3.834C3.129,2.556,2.556,3.127,2.556,3.834z"></path></a></g><g id="minder_node21" transform="matrix( 1 0 0 1 -373 -397 )" opacity="1"><g id="node_childadder4" transform="translate( 60 -44 )" style="cursor: pointer;" display="none"><path id="kity_path_360" fill="#0D7FFF" stroke="none" d="M10,0A10,10,0,1,1,-10,0A10,10,0,1,1,10,0"></path><path id="kity_path_361" fill="none" stroke="white" stroke-width="2" d="M-6,0L6,0M0,-6L0,6"></path><path id="kity_path_362" fill="transparent" stroke="none" d="M20,0A20,20,0,1,1,-20,0A20,20,0,1,1,20,0"></path></g><g id="node_childadder3" transform="translate( 147.5 0 )" style="cursor: e-resize;" display="none"><path id="kity_path_358" fill="none" stroke="transparent" stroke-width="6" d="M2,-30L2,30"></path></g><path id="node_outline16" fill="#4D5386" stroke="#222222" d="M-23.5,-30h167a4,4,0,0,1,4,4v52a4,4,0,0,1,-4,4h-167a4,4,0,0,1,-4,-4v-52a4,4,0,0,1,4,-4z" stroke-width="2"></path><g id="node_text16" fill="#FFFFFF" transform="translate( 0 -3 )"><text id="kity_text_231" text-rendering="inherit" dy="21" font-size="20" y="-10" x="0" font-weight="bold">增强学习概论</text></g></g><g id="minder_node46" transform="matrix( 1 0 0 1 -450 -595 )" opacity="1"><g id="node_childadder54" transform="translate( 36.5 43 )" style="cursor: pointer;" display="none"><path id="kity_path_10410" fill="#0D7FFF" stroke="none" d="M10,0A10,10,0,1,1,-10,0A10,10,0,1,1,10,0"></path><path id="kity_path_10411" fill="none" stroke="white" stroke-width="2" d="M-6,0L6,0M0,-6L0,6"></path><path id="kity_path_10412" fill="transparent" stroke="none" d="M20,0A20,20,0,1,1,-20,0A20,20,0,1,1,20,0"></path></g><g id="node_childadder53" transform="translate( 105 0 )" style="cursor: e-resize;" display="none"><path id="kity_path_10408" fill="none" stroke="transparent" stroke-width="6" d="M2,-30L2,30"></path></g><path id="node_outline46" fill="#4D5386" d="M-28,-30h129a4,4,0,0,1,4,4v52a4,4,0,0,1,-4,4h-129a4,4,0,0,1,-4,-4v-52a4,4,0,0,1,4,-4z" stroke-width="0"></path><g id="node_text46" fill="#FFFFFF" transform="translate( 0 -2.75 )"><text id="kity_text_10365" text-rendering="inherit" dy="19" font-size="18" font-weight="bold" y="-9" x="0">知识图谱</text></g></g><g id="minder_node53" transform="matrix( 1 0 0 1 178 -632 )" opacity="1"><g id="node_childadder58" transform="translate( 57 45 )" style="cursor: pointer;" display="none"><path id="kity_path_16469" fill="#0D7FFF" stroke="none" d="M10,0A10,10,0,1,1,-10,0A10,10,0,1,1,10,0"></path><path id="kity_path_16470" fill="none" stroke="white" stroke-width="2" d="M-6,0L6,0M0,-6L0,6"></path><path id="kity_path_16471" fill="transparent" stroke="none" d="M20,0A20,20,0,1,1,-20,0A20,20,0,1,1,20,0"></path></g><g id="node_childadder57" transform="translate( 146 0 )" style="cursor: e-resize;" display="none"><path id="kity_path_16467" fill="none" stroke="transparent" stroke-width="6" d="M2,-32L2,32"></path></g><path id="node_outline53" fill="#435FBC" d="M-28,-32h170a4,4,0,0,1,4,4v56a4,4,0,0,1,-4,4h-170a4,4,0,0,1,-4,-4v-56a4,4,0,0,1,4,-4z" stroke-width="0"></path><g id="node_text53" fill="white" transform="translate( 0 -3 )"><text id="kity_text_16330" text-rendering="inherit" dy="21" font-size="20" y="-10" x="0" font-weight="bold">并行计算</text></g><a id="kity_a_38216" xlink:href="../advanced/hpc/contents1.html#parallel-computing" target="_blank" xlink:title="../advanced/hpc/contents1.html#parallel-computing" transform="translate( 92 -5 )" style="cursor: pointer;"><path id="kity_path_38218" fill="rgba(255, 255, 255, 0)" stroke="none" d="M2,-6h16a4,4,0,0,1,4,4v14a4,4,0,0,1,-4,4h-16a4,4,0,0,1,-4,-4v-14a4,4,0,0,1,4,-4z"></path><path id="kity_path_38217" fill="#666" stroke="none" d="M16.614,10.224h-1.278c-1.668,0-3.07-1.07-3.599-2.556h4.877c0.707,0,1.278-0.571,1.278-1.278V3.834 c0-0.707-0.571-1.278-1.278-1.278h-4.877C12.266,1.071,13.668,0,15.336,0h1.278c2.116,0,3.834,1.716,3.834,3.834V6.39 C20.448,8.508,18.73,10.224,16.614,10.224z M5.112,5.112c0-0.707,0.573-1.278,1.278-1.278h7.668c0.707,0,1.278,0.571,1.278,1.278 S14.765,6.39,14.058,6.39H6.39C5.685,6.39,5.112,5.819,5.112,5.112z M2.556,3.834V6.39c0,0.707,0.573,1.278,1.278,1.278h4.877 c-0.528,1.486-1.932,2.556-3.599,2.556H3.834C1.716,10.224,0,8.508,0,6.39V3.834C0,1.716,1.716,0,3.834,0h1.278 c1.667,0,3.071,1.071,3.599,2.556H3.834C3.129,2.556,2.556,3.127,2.556,3.834z"></path></a></g><g id="minder_node50" transform="matrix( 1 0 0 1 138 -479 )" opacity="1"><g id="node_childadder56" transform="translate( 87 45 )" style="cursor: pointer;" display="none"><path id="kity_path_12815" fill="#0D7FFF" stroke="none" d="M10,0A10,10,0,1,1,-10,0A10,10,0,1,1,10,0"></path><path id="kity_path_12816" fill="none" stroke="white" stroke-width="2" d="M-6,0L6,0M0,-6L0,6"></path><path id="kity_path_12817" fill="transparent" stroke="none" d="M20,0A20,20,0,1,1,-20,0A20,20,0,1,1,20,0"></path></g><g id="node_childadder55" transform="translate( 206 0 )" style="cursor: e-resize;" display="none"><path id="kity_path_12813" fill="none" stroke="transparent" stroke-width="6" d="M2,-32L2,32"></path></g><path id="node_outline50" fill="#435FBC" d="M-28,-32h230a4,4,0,0,1,4,4v56a4,4,0,0,1,-4,4h-230a4,4,0,0,1,-4,-4v-56a4,4,0,0,1,4,-4z" stroke-width="0"></path><g id="node_text50" fill="white" transform="translate( 0 -3 )"><text id="kity_text_12769" text-rendering="inherit" dy="21" font-size="20" y="-10" x="0" font-weight="bold">高性能软件系统</text></g><a id="kity_a_38132" xlink:href="../advanced/hpc/contents1.html#performance-engineering-of-software-systems-6-172" target="_blank" xlink:title="../advanced/hpc/contents1.html#performance-engineering-of-software-systems-6-172" transform="translate( 152 -5 )" style="cursor: pointer;"><path id="kity_path_38134" fill="rgba(255, 255, 255, 0)" stroke="none" d="M2,-6h16a4,4,0,0,1,4,4v14a4,4,0,0,1,-4,4h-16a4,4,0,0,1,-4,-4v-14a4,4,0,0,1,4,-4z"></path><path id="kity_path_38133" fill="#666" stroke="none" d="M16.614,10.224h-1.278c-1.668,0-3.07-1.07-3.599-2.556h4.877c0.707,0,1.278-0.571,1.278-1.278V3.834 c0-0.707-0.571-1.278-1.278-1.278h-4.877C12.266,1.071,13.668,0,15.336,0h1.278c2.116,0,3.834,1.716,3.834,3.834V6.39 C20.448,8.508,18.73,10.224,16.614,10.224z M5.112,5.112c0-0.707,0.573-1.278,1.278-1.278h7.668c0.707,0,1.278,0.571,1.278,1.278 S14.765,6.39,14.058,6.39H6.39C5.685,6.39,5.112,5.819,5.112,5.112z M2.556,3.834V6.39c0,0.707,0.573,1.278,1.278,1.278h4.877 c-0.528,1.486-1.932,2.556-3.599,2.556H3.834C1.716,10.224,0,8.508,0,6.39V3.834C0,1.716,1.716,0,3.834,0h1.278 c1.667,0,3.071,1.071,3.599,2.556H3.834C3.129,2.556,2.556,3.127,2.556,3.834z"></path></a></g><g id="minder_node12" transform="matrix( 1 0 0 1 127 -356 )"><g id="node_childadder14" transform="translate( 57 45 )" style="cursor: pointer;" display="none"><path id="kity_path_649" fill="#0D7FFF" stroke="none" d="M10,0A10,10,0,1,1,-10,0A10,10,0,1,1,10,0"></path><path id="kity_path_650" fill="none" stroke="white" stroke-width="2" d="M-6,0L6,0M0,-6L0,6"></path><path id="kity_path_651" fill="transparent" stroke="none" d="M20,0A20,20,0,1,1,-20,0A20,20,0,1,1,20,0"></path></g><g id="node_childadder13" transform="translate( 146 0 )" style="cursor: e-resize;" display="none"><path id="kity_path_647" fill="none" stroke="transparent" stroke-width="6" d="M2,-32L2,32"></path></g><path id="node_outline8" fill="#4D5386" d="M-28,-32h170a4,4,0,0,1,4,4v56a4,4,0,0,1,-4,4h-170a4,4,0,0,1,-4,-4v-56a4,4,0,0,1,4,-4z" stroke-width="0"></path><g id="node_text8" fill="white" transform="translate( 0 -3 )"><text id="kity_text_145" text-rendering="inherit" dy="21" font-size="20" font-weight="bold" y="-10" x="0">软件工程</text></g><a id="kity_a_38054" xlink:href="https://www.youtube.com/playlist?list=PLkFD6_40KJIxCKgzL0uysjsAtfY3JawLS" target="_blank" xlink:title="https://www.youtube.com/playlist?list=PLkFD6_40KJIxCKgzL0uysjsAtfY3JawLS" transform="translate( 92 -5 )" style="cursor: pointer;"><path id="kity_path_38056" fill="rgba(255, 255, 255, 0)" stroke="none" d="M2,-6h16a4,4,0,0,1,4,4v14a4,4,0,0,1,-4,4h-16a4,4,0,0,1,-4,-4v-14a4,4,0,0,1,4,-4z"></path><path id="kity_path_38055" fill="#666" stroke="none" d="M16.614,10.224h-1.278c-1.668,0-3.07-1.07-3.599-2.556h4.877c0.707,0,1.278-0.571,1.278-1.278V3.834 c0-0.707-0.571-1.278-1.278-1.278h-4.877C12.266,1.071,13.668,0,15.336,0h1.278c2.116,0,3.834,1.716,3.834,3.834V6.39 C20.448,8.508,18.73,10.224,16.614,10.224z M5.112,5.112c0-0.707,0.573-1.278,1.278-1.278h7.668c0.707,0,1.278,0.571,1.278,1.278 S14.765,6.39,14.058,6.39H6.39C5.685,6.39,5.112,5.819,5.112,5.112z M2.556,3.834V6.39c0,0.707,0.573,1.278,1.278,1.278h4.877 c-0.528,1.486-1.932,2.556-3.599,2.556H3.834C1.716,10.224,0,8.508,0,6.39V3.834C0,1.716,1.716,0,3.834,0h1.278 c1.667,0,3.071,1.071,3.599,2.556H3.834C3.129,2.556,2.556,3.127,2.556,3.834z"></path></a></g><g id="minder_node18" transform="matrix( 1 0 0 1 47 -193 )"><g id="node_childadder2" transform="translate( 57 -45 )" style="cursor: pointer;" display="none"><path id="kity_path_351" fill="#0D7FFF" stroke="none" d="M10,0A10,10,0,1,1,-10,0A10,10,0,1,1,10,0"></path><path id="kity_path_352" fill="none" stroke="white" stroke-width="2" d="M-6,0L6,0M0,-6L0,6"></path><path id="kity_path_353" fill="transparent" stroke="none" d="M20,0A20,20,0,1,1,-20,0A20,20,0,1,1,20,0"></path></g><g id="node_childadder1" transform="translate( 146 0 )" style="cursor: e-resize;" display="none"><path id="kity_path_349" fill="none" stroke="transparent" stroke-width="6" d="M2,-32L2,32"></path></g><path id="node_outline14" fill="#0043A7" d="M-28,-32h170a4,4,0,0,1,4,4v56a4,4,0,0,1,-4,4h-170a4,4,0,0,1,-4,-4v-56a4,4,0,0,1,4,-4z" stroke-width="0"></path><g id="node_text14" fill="white" transform="translate( 0 -3 )"><text id="kity_text_208" text-rendering="inherit" dy="21" font-size="20" font-weight="bold" y="-10" x="0">编译原理</text></g><a id="kity_a_37962" xlink:href="../core/contents_others.html#compilers" target="_blank" xlink:title="../core/contents_others.html#compilers" transform="translate( 92 -5 )" style="cursor: pointer;"><path id="kity_path_37964" fill="rgba(255, 255, 255, 0)" stroke="none" d="M2,-6h16a4,4,0,0,1,4,4v14a4,4,0,0,1,-4,4h-16a4,4,0,0,1,-4,-4v-14a4,4,0,0,1,4,-4z"></path><path id="kity_path_37963" fill="#666" stroke="none" d="M16.614,10.224h-1.278c-1.668,0-3.07-1.07-3.599-2.556h4.877c0.707,0,1.278-0.571,1.278-1.278V3.834 c0-0.707-0.571-1.278-1.278-1.278h-4.877C12.266,1.071,13.668,0,15.336,0h1.278c2.116,0,3.834,1.716,3.834,3.834V6.39 C20.448,8.508,18.73,10.224,16.614,10.224z M5.112,5.112c0-0.707,0.573-1.278,1.278-1.278h7.668c0.707,0,1.278,0.571,1.278,1.278 S14.765,6.39,14.058,6.39H6.39C5.685,6.39,5.112,5.819,5.112,5.112z M2.556,3.834V6.39c0,0.707,0.573,1.278,1.278,1.278h4.877 c-0.528,1.486-1.932,2.556-3.599,2.556H3.834C1.716,10.224,0,8.508,0,6.39V3.834C0,1.716,1.716,0,3.834,0h1.278 c1.667,0,3.071,1.071,3.599,2.556H3.834C3.129,2.556,2.556,3.127,2.556,3.834z"></path></a></g><g id="minder_node5" transform="matrix( 1 0 0 1 219 97 )"><g id="node_childadder70" transform="translate( 50.5 45 )" style="cursor: pointer;" display="none"><path id="kity_path_23890" fill="#0D7FFF" stroke="none" d="M10,0A10,10,0,1,1,-10,0A10,10,0,1,1,10,0"></path><path id="kity_path_23891" fill="none" stroke="white" stroke-width="2" d="M-6,0L6,0M0,-6L0,6"></path><path id="kity_path_23892" fill="transparent" stroke="none" d="M20,0A20,20,0,1,1,-20,0A20,20,0,1,1,20,0"></path></g><g id="node_childadder69" transform="translate( 128.5 0 )" style="cursor: e-resize;" display="none"><path id="kity_path_23888" fill="none" stroke="transparent" stroke-width="6" d="M2,-31L2,31"></path></g><path id="node_outline21" fill="#FFFFFF" stroke="#222222" d="M-23.5,-31h148a4,4,0,0,1,4,4v54a4,4,0,0,1,-4,4h-148a4,4,0,0,1,-4,-4v-54a4,4,0,0,1,4,-4z" stroke-width="2"></path><g id="node_text21" fill="#000000" transform="translate( 0 -2.75 )"><text id="kity_text_304" text-rendering="inherit" dy="19" font-size="18" y="-9" x="0">离散数学</text></g><a id="kity_a_37870" xlink:href="../basic/intr_index.html#mathematics" target="_blank" xlink:title="../basic/intr_index.html#mathematics" transform="translate( 79 -5 )" style="cursor: pointer;"><path id="kity_path_37872" fill="rgba(255, 255, 255, 0)" stroke="none" d="M2,-6h16a4,4,0,0,1,4,4v14a4,4,0,0,1,-4,4h-16a4,4,0,0,1,-4,-4v-14a4,4,0,0,1,4,-4z"></path><path id="kity_path_37871" fill="#666" stroke="none" d="M16.614,10.224h-1.278c-1.668,0-3.07-1.07-3.599-2.556h4.877c0.707,0,1.278-0.571,1.278-1.278V3.834 c0-0.707-0.571-1.278-1.278-1.278h-4.877C12.266,1.071,13.668,0,15.336,0h1.278c2.116,0,3.834,1.716,3.834,3.834V6.39 C20.448,8.508,18.73,10.224,16.614,10.224z M5.112,5.112c0-0.707,0.573-1.278,1.278-1.278h7.668c0.707,0,1.278,0.571,1.278,1.278 S14.765,6.39,14.058,6.39H6.39C5.685,6.39,5.112,5.819,5.112,5.112z M2.556,3.834V6.39c0,0.707,0.573,1.278,1.278,1.278h4.877 c-0.528,1.486-1.932,2.556-3.599,2.556H3.834C1.716,10.224,0,8.508,0,6.39V3.834C0,1.716,1.716,0,3.834,0h1.278 c1.667,0,3.071,1.071,3.599,2.556H3.834C3.129,2.556,2.556,3.127,2.556,3.834z"></path></a></g><g id="minder_node15" transform="matrix( 1 0 0 1 1029 -381 )"><g id="node_childadder66" transform="translate( 142.5 0 )" style="cursor: pointer;" display="none"><path id="kity_path_23529" fill="#0D7FFF" stroke="none" d="M10,0A10,10,0,1,1,-10,0A10,10,0,1,1,10,0"></path><path id="kity_path_23530" fill="none" stroke="white" stroke-width="2" d="M-6,0L6,0M0,-6L0,6"></path><path id="kity_path_23531" fill="transparent" stroke="none" d="M20,0A20,20,0,1,1,-20,0A20,20,0,1,1,20,0"></path></g><g id="node_childadder65" transform="translate( 128.5 0 )" style="cursor: e-resize;" display="none"><path id="kity_path_23527" fill="none" stroke="transparent" stroke-width="6" d="M2,-31L2,31"></path></g><path id="node_outline10" fill="#FFFFFF" stroke="#222222" d="M-23.5,-31h148a4,4,0,0,1,4,4v54a4,4,0,0,1,-4,4h-148a4,4,0,0,1,-4,-4v-54a4,4,0,0,1,4,-4z" stroke-width="2"></path><g id="node_text10" fill="#000000" transform="translate( 0 -2.75 )"><text id="kity_text_166" text-rendering="inherit" dy="19" font-size="18" y="-9" x="0">网络原理</text></g><a id="kity_a_40815" xlink:href="../core/syst/contents2.html#networking" target="_blank" xlink:title="../core/syst/contents2.html#networking" transform="translate( 79 -5 )" style="cursor: pointer;"><path id="kity_path_40817" fill="rgba(255, 255, 255, 0)" stroke="none" d="M2,-6h16a4,4,0,0,1,4,4v14a4,4,0,0,1,-4,4h-16a4,4,0,0,1,-4,-4v-14a4,4,0,0,1,4,-4z"></path><path id="kity_path_40816" fill="#666" stroke="none" d="M16.614,10.224h-1.278c-1.668,0-3.07-1.07-3.599-2.556h4.877c0.707,0,1.278-0.571,1.278-1.278V3.834 c0-0.707-0.571-1.278-1.278-1.278h-4.877C12.266,1.071,13.668,0,15.336,0h1.278c2.116,0,3.834,1.716,3.834,3.834V6.39 C20.448,8.508,18.73,10.224,16.614,10.224z M5.112,5.112c0-0.707,0.573-1.278,1.278-1.278h7.668c0.707,0,1.278,0.571,1.278,1.278 S14.765,6.39,14.058,6.39H6.39C5.685,6.39,5.112,5.819,5.112,5.112z M2.556,3.834V6.39c0,0.707,0.573,1.278,1.278,1.278h4.877 c-0.528,1.486-1.932,2.556-3.599,2.556H3.834C1.716,10.224,0,8.508,0,6.39V3.834C0,1.716,1.716,0,3.834,0h1.278 c1.667,0,3.071,1.071,3.599,2.556H3.834C3.129,2.556,2.556,3.127,2.556,3.834z"></path></a></g><g id="minder_node17" transform="matrix( 1 0 0 1 1029 -215 )"><g id="node_childadder38" transform="translate( 77.5 0 )" style="cursor: pointer;" display="none"><path id="kity_path_3597" fill="#0D7FFF" stroke="none" d="M10,0A10,10,0,1,1,-10,0A10,10,0,1,1,10,0"></path><path id="kity_path_3598" fill="none" stroke="white" stroke-width="2" d="M-6,0L6,0M0,-6L0,6"></path><path id="kity_path_3599" fill="transparent" stroke="none" d="M20,0A20,20,0,1,1,-20,0A20,20,0,1,1,20,0"></path></g><g id="node_childadder37" transform="translate( 63.5 0 )" style="cursor: e-resize;" display="none"><path id="kity_path_3595" fill="none" stroke="transparent" stroke-width="6" d="M2,-29L2,29"></path></g><path id="node_outline12" fill="#FFFFFF" stroke="#222222" d="M-23.5,-31h112a4,4,0,0,1,4,4v54a4,4,0,0,1,-4,4h-112a4,4,0,0,1,-4,-4v-54a4,4,0,0,1,4,-4z" stroke-width="2"></path><g id="node_text12" fill="#000000" transform="translate( 0 -2.75 )"><text id="kity_text_170" text-rendering="inherit" dy="19" font-size="18" y="-9" x="0">安全</text></g><a id="kity_a_40973" xlink:href="../core/syst/contents2.html#security" target="_blank" xlink:title="../core/syst/contents2.html#security" transform="translate( 43 -5 )" style="cursor: pointer;"><path id="kity_path_40975" fill="rgba(255, 255, 255, 0)" stroke="none" d="M2,-6h16a4,4,0,0,1,4,4v14a4,4,0,0,1,-4,4h-16a4,4,0,0,1,-4,-4v-14a4,4,0,0,1,4,-4z"></path><path id="kity_path_40974" fill="#666" stroke="none" d="M16.614,10.224h-1.278c-1.668,0-3.07-1.07-3.599-2.556h4.877c0.707,0,1.278-0.571,1.278-1.278V3.834 c0-0.707-0.571-1.278-1.278-1.278h-4.877C12.266,1.071,13.668,0,15.336,0h1.278c2.116,0,3.834,1.716,3.834,3.834V6.39 C20.448,8.508,18.73,10.224,16.614,10.224z M5.112,5.112c0-0.707,0.573-1.278,1.278-1.278h7.668c0.707,0,1.278,0.571,1.278,1.278 S14.765,6.39,14.058,6.39H6.39C5.685,6.39,5.112,5.819,5.112,5.112z M2.556,3.834V6.39c0,0.707,0.573,1.278,1.278,1.278h4.877 c-0.528,1.486-1.932,2.556-3.599,2.556H3.834C1.716,10.224,0,8.508,0,6.39V3.834C0,1.716,1.716,0,3.834,0h1.278 c1.667,0,3.071,1.071,3.599,2.556H3.834C3.129,2.556,2.556,3.127,2.556,3.834z"></path></a></g><g id="minder_node16" transform="matrix( 1 0 0 1 1029 -298 )"><g id="node_childadder68" transform="translate( 160.5 0 )" style="cursor: pointer;" display="none"><path id="kity_path_23537" fill="#0D7FFF" stroke="none" d="M10,0A10,10,0,1,1,-10,0A10,10,0,1,1,10,0"></path><path id="kity_path_23538" fill="none" stroke="white" stroke-width="2" d="M-6,0L6,0M0,-6L0,6"></path><path id="kity_path_23539" fill="transparent" stroke="none" d="M20,0A20,20,0,1,1,-20,0A20,20,0,1,1,20,0"></path></g><g id="node_childadder67" transform="translate( 146.5 0 )" style="cursor: e-resize;" display="none"><path id="kity_path_23535" fill="none" stroke="transparent" stroke-width="6" d="M2,-31L2,31"></path></g><path id="node_outline11" fill="#FFFFFF" stroke="#222222" d="M-23.5,-31h166a4,4,0,0,1,4,4v54a4,4,0,0,1,-4,4h-166a4,4,0,0,1,-4,-4v-54a4,4,0,0,1,4,-4z" stroke-width="2"></path><g id="node_text11" fill="#000000" transform="translate( 0 -2.75 )"><text id="kity_text_168" text-rendering="inherit" dy="19" font-size="18" y="-9" x="0">分布式系统</text></g><a id="kity_a_40895" xlink:href="../core/syst/contents2.html#distributed-systems" target="_blank" xlink:title="../core/syst/contents2.html#distributed-systems" transform="translate( 97 -5 )" style="cursor: pointer;"><path id="kity_path_40897" fill="rgba(255, 255, 255, 0)" stroke="none" d="M2,-6h16a4,4,0,0,1,4,4v14a4,4,0,0,1,-4,4h-16a4,4,0,0,1,-4,-4v-14a4,4,0,0,1,4,-4z"></path><path id="kity_path_40896" fill="#666" stroke="none" d="M16.614,10.224h-1.278c-1.668,0-3.07-1.07-3.599-2.556h4.877c0.707,0,1.278-0.571,1.278-1.278V3.834 c0-0.707-0.571-1.278-1.278-1.278h-4.877C12.266,1.071,13.668,0,15.336,0h1.278c2.116,0,3.834,1.716,3.834,3.834V6.39 C20.448,8.508,18.73,10.224,16.614,10.224z M5.112,5.112c0-0.707,0.573-1.278,1.278-1.278h7.668c0.707,0,1.278,0.571,1.278,1.278 S14.765,6.39,14.058,6.39H6.39C5.685,6.39,5.112,5.819,5.112,5.112z M2.556,3.834V6.39c0,0.707,0.573,1.278,1.278,1.278h4.877 c-0.528,1.486-1.932,2.556-3.599,2.556H3.834C1.716,10.224,0,8.508,0,6.39V3.834C0,1.716,1.716,0,3.834,0h1.278 c1.667,0,3.071,1.071,3.599,2.556H3.834C3.129,2.556,2.556,3.127,2.556,3.834z"></path></a></g><g id="minder_node14" transform="matrix( 1 0 0 1 1029 -464 )"><g id="node_childadder72" transform="translate( 142.5 0 )" style="cursor: pointer;" display="none"><path id="kity_path_23898" fill="#0D7FFF" stroke="none" d="M10,0A10,10,0,1,1,-10,0A10,10,0,1,1,10,0"></path><path id="kity_path_23899" fill="none" stroke="white" stroke-width="2" d="M-6,0L6,0M0,-6L0,6"></path><path id="kity_path_23900" fill="transparent" stroke="none" d="M20,0A20,20,0,1,1,-20,0A20,20,0,1,1,20,0"></path></g><g id="node_childadder71" transform="translate( 128.5 0 )" style="cursor: e-resize;" display="none"><path id="kity_path_23896" fill="none" stroke="transparent" stroke-width="6" d="M2,-31L2,31"></path></g><path id="node_outline9" fill="#FFFFFF" stroke="#222222" d="M-23.5,-31h148a4,4,0,0,1,4,4v54a4,4,0,0,1,-4,4h-148a4,4,0,0,1,-4,-4v-54a4,4,0,0,1,4,-4z" stroke-width="2"></path><g id="node_text9" fill="#000000" transform="translate( 0 -2.75 )"><text id="kity_text_164" text-rendering="inherit" dy="19" font-size="18" y="-9" x="0">操作系统</text></g><a id="kity_a_40735" xlink:href="../core/syst/contents2.html#operating-systems" target="_blank" xlink:title="../core/syst/contents2.html#operating-systems" transform="translate( 79 -5 )" style="cursor: pointer;"><path id="kity_path_40737" fill="rgba(255, 255, 255, 0)" stroke="none" d="M2,-6h16a4,4,0,0,1,4,4v14a4,4,0,0,1,-4,4h-16a4,4,0,0,1,-4,-4v-14a4,4,0,0,1,4,-4z"></path><path id="kity_path_40736" fill="#666" stroke="none" d="M16.614,10.224h-1.278c-1.668,0-3.07-1.07-3.599-2.556h4.877c0.707,0,1.278-0.571,1.278-1.278V3.834 c0-0.707-0.571-1.278-1.278-1.278h-4.877C12.266,1.071,13.668,0,15.336,0h1.278c2.116,0,3.834,1.716,3.834,3.834V6.39 C20.448,8.508,18.73,10.224,16.614,10.224z M5.112,5.112c0-0.707,0.573-1.278,1.278-1.278h7.668c0.707,0,1.278,0.571,1.278,1.278 S14.765,6.39,14.058,6.39H6.39C5.685,6.39,5.112,5.819,5.112,5.112z M2.556,3.834V6.39c0,0.707,0.573,1.278,1.278,1.278h4.877 c-0.528,1.486-1.932,2.556-3.599,2.556H3.834C1.716,10.224,0,8.508,0,6.39V3.834C0,1.716,1.716,0,3.834,0h1.278 c1.667,0,3.071,1.071,3.599,2.556H3.834C3.129,2.556,2.556,3.127,2.556,3.834z"></path></a></g></g><g id="kity_g_22" display="none"><path id="kity_path_23" fill="rgba(0, 92, 153, 0.5)" stroke="none" d="M-89,-535h10v30h-10z"></path><path id="kity_path_24" fill="none" stroke="#004c80" d="M-79,-535L-79,-505" stroke-width="1"></path></g><g id="minder_rel_line_group1"><g id="minder_rel_line25"><path id="kity_path_33334" fill="none" stroke="#696969" marker-end="url(#kity_marker_4897)" stroke-width="2" stroke-dasharray="6,3" d="M0,0M-24.5,66C-24.5,-400.5,-73.5,-411.5,-73.5,-504"></path><path id="kity_path_33335" fill="none" stroke="transparent" stroke-width="10" d="M0,0M-24.5,66C-24.5,-400.5,-73.5,-411.5,-73.5,-504" style="cursor: pointer;"></path></g><g id="minder_rel_line24"><path id="kity_path_30711" fill="none" stroke="#696969" marker-end="url(#kity_marker_4897)" stroke-width="2" stroke-dasharray="6,3" d="M0,0M115.5,66C115.5,-308.5,-205.5,-324.5,-205.5,-432"></path><path id="kity_path_30712" fill="none" stroke="transparent" stroke-width="10" d="M0,0M115.5,66C115.5,-308.5,-205.5,-324.5,-205.5,-432" style="cursor: pointer;"></path></g><g id="minder_rel_line23"><path id="kity_path_23565" fill="none" stroke="#C2C2C2" marker-end="url(#kity_marker_22552)" stroke-width="2" stroke-dasharray="6,3" d="M0,0M859.5,-372C859.5,-552.5,701.5,-463.5,701.5,-599"></path><path id="kity_path_23566" fill="none" stroke="transparent" stroke-width="10" d="M0,0M859.5,-372C859.5,-552.5,701.5,-463.5,701.5,-599" style="cursor: pointer;"></path></g><g id="minder_rel_line22"><path id="kity_path_22594" fill="none" stroke="#C2C2C2" marker-end="url(#kity_marker_22552)" stroke-width="2" stroke-dasharray="6,3" d="M0,0M686.5,-401C686.5,-628.5,233.5,-483.5,233.5,-600"></path><path id="kity_path_22595" fill="none" stroke="transparent" stroke-width="10" d="M0,0M686.5,-401C686.5,-628.5,233.5,-483.5,233.5,-600" style="cursor: pointer;"></path></g><g id="minder_rel_line21"><path id="kity_path_21911" fill="none" stroke="#C2C2C2" marker-end="url(#kity_marker_22552)" stroke-width="2" stroke-dasharray="6,3" d="M0,0M477.5,-397C477.5,-632.5,233.5,-429.5,233.5,-600"></path><path id="kity_path_21912" fill="none" stroke="transparent" stroke-width="10" d="M0,0M477.5,-397C477.5,-632.5,233.5,-429.5,233.5,-600" style="cursor: pointer;"></path></g><g id="minder_rel_line20"><path id="kity_path_19280" fill="none" stroke="#000000" marker-end="url(#kity_marker_3444)" stroke-width="2" stroke-dasharray="6,3" d="M0,0M222.5,-511C222.5,-512.5,701.5,-505.5,701.5,-599"></path><path id="kity_path_19281" fill="none" stroke="transparent" stroke-width="10" d="M0,0M222.5,-511C222.5,-512.5,701.5,-505.5,701.5,-599" style="cursor: pointer;"></path></g><g id="minder_rel_line19"><path id="kity_path_19228" fill="none" stroke="#000000" marker-end="url(#kity_marker_3444)" stroke-width="2" stroke-dasharray="6,3" d="M0,0M224.5,-511C224.5,-513.5,459.5,-517.5,459.5,-599"></path><path id="kity_path_19229" fill="none" stroke="transparent" stroke-width="10" d="M0,0M224.5,-511C224.5,-513.5,459.5,-517.5,459.5,-599" style="cursor: pointer;"></path></g><g id="minder_rel_line18"><path id="kity_path_18474" fill="none" stroke="#000000" marker-end="url(#kity_marker_3444)" stroke-width="2" stroke-dasharray="6,3" d="M0,0M219.5,-511C219.5,-523.5,233.5,-517.5,233.5,-600"></path><path id="kity_path_18475" fill="none" stroke="transparent" stroke-width="10" d="M0,0M219.5,-511C219.5,-523.5,233.5,-517.5,233.5,-600" style="cursor: pointer;"></path></g><g id="minder_rel_line17"><path id="kity_path_15040" fill="none" stroke="#696969" marker-end="url(#kity_marker_4897)" stroke-width="2" stroke-dasharray="6,3" d="M0,0M-183.5,66C-183.5,-156.5,-74.5,-187.5,-74.5,-504"></path><path id="kity_path_15041" fill="none" stroke="transparent" stroke-width="10" d="M0,0M-183.5,66C-183.5,-156.5,-74.5,-187.5,-74.5,-504" style="cursor: pointer;"></path></g><g id="minder_rel_line16"><path id="kity_path_14592" fill="none" stroke="#000000" marker-end="url(#kity_marker_3444)" stroke-width="2" stroke-dasharray="6,3" d="M0,0M199.5,-388C199.5,-426.5,216.5,-411.5,216.5,-447"></path><path id="kity_path_14593" fill="none" stroke="transparent" stroke-width="10" d="M0,0M199.5,-388C199.5,-426.5,216.5,-411.5,216.5,-447" style="cursor: pointer;"></path></g><g id="minder_rel_line15"><path id="kity_path_11155" fill="none" stroke="#9B9B9B" marker-end="url(#kity_marker_12283)" stroke-width="2" stroke-dasharray="6,3" d="M0,0M-408.5,-625C-408.5,-677.5,-261.5,-624.5,-214,-619"></path><path id="kity_path_11156" fill="none" stroke="transparent" stroke-width="10" d="M0,0M-408.5,-625C-408.5,-677.5,-261.5,-624.5,-214,-619" style="cursor: pointer;"></path></g><g id="minder_rel_line13"><path id="kity_path_10564" fill="none" stroke="#000000" marker-end="url(#kity_marker_3444)" stroke-width="2" stroke-dasharray="6,3" d="M0,0M-496,-478C-496,-485.5,-414.5,-502.5,-414.5,-565"></path><path id="kity_path_10565" fill="none" stroke="transparent" stroke-width="10" d="M0,0M-496,-478C-496,-485.5,-414.5,-502.5,-414.5,-565" style="cursor: pointer;"></path></g><g id="minder_rel_line12"><path id="kity_path_4861" fill="none" stroke="#9B9B9B" marker-end="url(#kity_marker_12283)" stroke-width="2" stroke-dasharray="6,3" d="M0,0M-207.5,-492C-207.5,-608.5,-54.5,-618.5,-54,-618.5"></path><path id="kity_path_4862" fill="none" stroke="transparent" stroke-width="10" d="M0,0M-207.5,-492C-207.5,-608.5,-54.5,-618.5,-54,-618.5" style="cursor: pointer;"></path></g><g id="minder_rel_line11"><path id="kity_path_4798" fill="none" stroke="#9B9B9B" marker-end="url(#kity_marker_12283)" stroke-width="2" stroke-dasharray="6,3" d="M0,0M-207.5,-492C-207.5,-540.5,-264.5,-620.5,-214,-619"></path><path id="kity_path_4799" fill="none" stroke="transparent" stroke-width="10" d="M0,0M-207.5,-492C-207.5,-540.5,-264.5,-620.5,-214,-619" style="cursor: pointer;"></path></g><g id="minder_rel_line9"><path id="kity_path_2564" fill="none" stroke="#696969" marker-end="url(#kity_marker_4897)" stroke-width="2" stroke-dasharray="6,3" d="M0,0M115.5,66C115.5,-189.5,-524,-99.5,-524,-367"></path><path id="kity_path_2565" fill="none" stroke="transparent" stroke-width="10" d="M0,0M115.5,66C115.5,-189.5,-524,-99.5,-524,-367" style="cursor: pointer;"></path></g><g id="minder_rel_line8"><path id="kity_path_294" fill="none" stroke="#000000" marker-end="url(#kity_marker_3444)" stroke-width="2" stroke-dasharray="6,3" d="M0,0M572.5,-222C572.5,-223.5,686.5,-253.5,686.5,-339"></path><path id="kity_path_295" fill="none" stroke="transparent" stroke-width="10" d="M0,0M572.5,-222C572.5,-223.5,686.5,-253.5,686.5,-339" style="cursor: pointer;"></path></g><g id="minder_rel_line7"><path id="kity_path_290" fill="none" stroke="#000000" marker-end="url(#kity_marker_3444)" stroke-width="2" stroke-dasharray="6,3" d="M0,0M822.5,-223C822.5,-224.5,854.5,-229.5,854.5,-308"></path><path id="kity_path_291" fill="none" stroke="transparent" stroke-width="10" d="M0,0M822.5,-223C822.5,-224.5,854.5,-229.5,854.5,-308" style="cursor: pointer;"></path></g><g id="minder_rel_line6"><path id="kity_path_286" fill="none" stroke="#000000" marker-end="url(#kity_marker_3444)" stroke-width="2" stroke-dasharray="6,3" d="M0,0M103.5,-225C103.5,-226.5,194.5,-282.5,194.5,-324"></path><path id="kity_path_287" fill="none" stroke="transparent" stroke-width="10" d="M0,0M103.5,-225C103.5,-226.5,194.5,-282.5,194.5,-324" style="cursor: pointer;"></path></g><g id="minder_rel_line5"><path id="kity_path_282" fill="none" stroke="#000000" marker-end="url(#kity_marker_3444)" stroke-width="2" stroke-dasharray="6,3" d="M0,0M315.5,-224C315.5,-288.5,194.5,-265.5,194.5,-324"></path><path id="kity_path_283" fill="none" stroke="transparent" stroke-width="10" d="M0,0M315.5,-224C315.5,-288.5,194.5,-265.5,194.5,-324" style="cursor: pointer;"></path></g><g id="minder_rel_line4"><path id="kity_path_278" fill="none" stroke="#000000" marker-end="url(#kity_marker_3444)" stroke-width="2" stroke-dasharray="6,3" d="M0,0M569.5,-222C569.5,-244.5,481.5,-181.5,481.5,-333"></path><path id="kity_path_279" fill="none" stroke="transparent" stroke-width="10" d="M0,0M569.5,-222C569.5,-244.5,481.5,-181.5,481.5,-333" style="cursor: pointer;"></path></g><g id="minder_rel_line3"><path id="kity_path_272" fill="none" stroke="#000000" marker-end="url(#kity_marker_3444)" stroke-width="2" stroke-dasharray="6,3" d="M0,0M270,66C270,-159.5,568.5,-77.5,568.5,-158"></path><path id="kity_path_273" fill="none" stroke="transparent" stroke-width="10" d="M0,0M270,66C270,-159.5,568.5,-77.5,568.5,-158" style="cursor: pointer;"></path></g><g id="minder_rel_line2"><path id="kity_path_268" fill="none" stroke="#000000" marker-end="url(#kity_marker_3444)" stroke-width="2" stroke-dasharray="6,3" d="M0,0M447,-35C447,-154,314.5,-35.5,314.5,-160"></path><path id="kity_path_269" fill="none" stroke="transparent" stroke-width="10" d="M0,0M447,-35C447,-154,314.5,-35.5,314.5,-160" style="cursor: pointer;"></path></g><g id="minder_rel_line1"><path id="kity_path_262" fill="none" stroke="#000000" marker-end="url(#kity_marker_3444)" stroke-width="2" stroke-dasharray="6,3" d="M0,0M448.5,-35C448.5,-36.5,567.5,-39.5,567.5,-158"></path><path id="kity_path_263" fill="none" stroke="transparent" stroke-width="10" d="M0,0M448.5,-35C448.5,-36.5,567.5,-39.5,567.5,-158" style="cursor: pointer;"></path></g><g id="minder_node60" transform="matrix( 1 0 0 1 459.5 -548.125 )"><path id="node_outline60" fill="transparent" d="M-1,-8h3a4,4,0,0,1,4,4v8a4,4,0,0,1,-4,4h-3a4,4,0,0,1,-4,-4v-8a4,4,0,0,1,4,-4z" stroke-width="0"></path><g id="node_text60" fill="#333" transform="translate( 0 0 )"><text id="kity_text_22603" text-rendering="inherit" dy="12.5" font-size="12" y="-6" x="0"> </text></g></g><g id="minder_node59" transform="matrix( 1 0 0 1 355 -528.875 )"><path id="node_outline59" fill="transparent" d="M-1,-8h3a4,4,0,0,1,4,4v8a4,4,0,0,1,-4,4h-3a4,4,0,0,1,-4,-4v-8a4,4,0,0,1,4,-4z" stroke-width="0"></path><g id="node_text59" fill="#333" transform="translate( 0 0 )"><text id="kity_text_21920" text-rendering="inherit" dy="12.5" font-size="12" y="-6" x="0"> </text></g></g><g id="minder_node28" transform="matrix( 1 0 0 1 838 -242.625 )"><path id="node_outline33" fill="transparent" d="M-1,-8h3a4,4,0,0,1,4,4v8a4,4,0,0,1,-4,4h-3a4,4,0,0,1,-4,-4v-8a4,4,0,0,1,4,-4z" stroke-width="0"></path><g id="node_text33" fill="#333" transform="translate( 0 0 )"><text id="kity_text_3611" text-rendering="inherit" dy="12.5" font-size="12" y="-6" x="0"> </text></g></g><g id="minder_node23" transform="matrix( 1 0 0 1 380.25 -101.4375 )"><path id="node_outline28" fill="transparent" d="M-1,-8h3a4,4,0,0,1,4,4v8a4,4,0,0,1,-4,4h-3a4,4,0,0,1,-4,-4v-8a4,4,0,0,1,4,-4z" stroke-width="0"></path><g id="node_text28" fill="#333" transform="translate( 0 0 )"><text id="kity_text_3487" text-rendering="inherit" dy="12.5" font-size="12" y="-6" x="0"> </text></g></g><g id="minder_node22" transform="matrix( 1 0 0 1 507.5 -58.625 )"><path id="node_outline30" fill="transparent" d="M-1,-8h3a4,4,0,0,1,4,4v8a4,4,0,0,1,-4,4h-3a4,4,0,0,1,-4,-4v-8a4,4,0,0,1,4,-4z" stroke-width="0"></path><g id="node_text30" fill="#333" transform="translate( 0 0 )"><text id="kity_text_3537" text-rendering="inherit" dy="12.5" font-size="12" y="-6" x="0"> </text></g></g><g id="minder_node47" transform="matrix( 1 0 0 1 -455.75 -506.875 )"><path id="node_outline47" fill="transparent" d="M-1,-8h3a4,4,0,0,1,4,4v8a4,4,0,0,1,-4,4h-3a4,4,0,0,1,-4,-4v-8a4,4,0,0,1,4,-4z" stroke-width="0"></path><g id="node_text47" fill="#333" transform="translate( 0 0 )"><text id="kity_text_10573" text-rendering="inherit" dy="12.5" font-size="12" y="-6" x="0"> </text></g></g><g id="minder_node34" transform="matrix( 1 0 0 1 -204.75 -152 )"><path id="node_outline26" fill="transparent" d="M-1,-8h3a4,4,0,0,1,4,4v8a4,4,0,0,1,-4,4h-3a4,4,0,0,1,-4,-4v-8a4,4,0,0,1,4,-4z" stroke-width="0"></path><g id="node_text26" fill="#333" transform="translate( 0 0 )"><text id="kity_text_2573" text-rendering="inherit" dy="12.5" font-size="12" y="-6" x="0"> </text></g></g><g id="minder_node56" transform="matrix( 1 0 0 1 226 -535.25 )"><path id="node_outline56" fill="transparent" d="M-1,-8h3a4,4,0,0,1,4,4v8a4,4,0,0,1,-4,4h-3a4,4,0,0,1,-4,-4v-8a4,4,0,0,1,4,-4z" stroke-width="0"></path><g id="node_text56" fill="#333" transform="translate( 0 0 )"><text id="kity_text_18483" text-rendering="inherit" dy="12.5" font-size="12" y="-6" x="0"> </text></g></g><g id="minder_node26" transform="matrix( 1 0 0 1 254.5 -282.25 )"><path id="node_outline29" fill="transparent" d="M-1,-8h3a4,4,0,0,1,4,4v8a4,4,0,0,1,-4,4h-3a4,4,0,0,1,-4,-4v-8a4,4,0,0,1,4,-4z" stroke-width="0"></path><g id="node_text29" fill="#333" transform="translate( 0 0 )"><text id="kity_text_3517" text-rendering="inherit" dy="12.5" font-size="12" y="-6" x="0"> </text></g></g><g id="minder_node51" transform="matrix( 1 0 0 1 207.5 -424.625 )"><path id="node_outline51" fill="transparent" d="M-1,-8h3a4,4,0,0,1,4,4v8a4,4,0,0,1,-4,4h-3a4,4,0,0,1,-4,-4v-8a4,4,0,0,1,4,-4z" stroke-width="0"></path><g id="node_text51" fill="#333" transform="translate( 0 0 )"><text id="kity_text_14601" text-rendering="inherit" dy="12.5" font-size="12" y="-6" x="0"> </text></g></g><g id="minder_node27" transform="matrix( 1 0 0 1 148.5 -265.5 )"><path id="node_outline27" fill="transparent" d="M-1,-8h3a4,4,0,0,1,4,4v8a4,4,0,0,1,-4,4h-3a4,4,0,0,1,-4,-4v-8a4,4,0,0,1,4,-4z" stroke-width="0"></path><g id="node_text27" fill="#333" transform="translate( 0 0 )"><text id="kity_text_3466" text-rendering="inherit" dy="12.5" font-size="12" y="-6" x="0"> </text></g></g><g id="minder_node49" transform="matrix( 1 0 0 1 -329.5625 -649.75 )"><path id="node_outline49" fill="transparent" d="M-1,-8h3a4,4,0,0,1,4,4v8a4,4,0,0,1,-4,4h-3a4,4,0,0,1,-4,-4v-8a4,4,0,0,1,4,-4z" stroke-width="0"></path><g id="node_text49" fill="#333" transform="translate( 0 0 )"><text id="kity_text_11164" text-rendering="inherit" dy="12.5" font-size="12" y="-6" x="0"> </text></g></g><g id="minder_node39" transform="matrix( 1 0 0 1 -230.1875 -580.25 )"><path id="node_outline39" fill="transparent" d="M-1,-8h3a4,4,0,0,1,4,4v8a4,4,0,0,1,-4,4h-3a4,4,0,0,1,-4,-4v-8a4,4,0,0,1,4,-4z" stroke-width="0"></path><g id="node_text39" fill="#333" transform="translate( 0 0 )"><text id="kity_text_4807" text-rendering="inherit" dy="12.5" font-size="12" y="-6" x="0"> </text></g></g><g id="minder_node40" transform="matrix( 1 0 0 1 -131.4375 -604.9375 )"><path id="node_outline40" fill="transparent" d="M-1,-8h3a4,4,0,0,1,4,4v8a4,4,0,0,1,-4,4h-3a4,4,0,0,1,-4,-4v-8a4,4,0,0,1,4,-4z" stroke-width="0"></path><g id="node_text40" fill="#333" transform="translate( 0 0 )"><text id="kity_text_4870" text-rendering="inherit" dy="12.5" font-size="12" y="-6" x="0"> </text></g></g><g id="minder_node63" transform="matrix( 1 0 0 1 -45.5 -289.125 )"><path id="node_outline63" fill="transparent" d="M-1,-8h3a4,4,0,0,1,4,4v8a4,4,0,0,1,-4,4h-3a4,4,0,0,1,-4,-4v-8a4,4,0,0,1,4,-4z" stroke-width="0"></path><g id="node_text63" fill="#333" transform="translate( 0 0 )"><text id="kity_text_30720" text-rendering="inherit" dy="12.5" font-size="12" y="-6" x="0"> </text></g></g><g id="minder_node24" transform="matrix( 1 0 0 1 418.75 -106.375 )"><path id="node_outline34" fill="transparent" d="M-1,-8h3a4,4,0,0,1,4,4v8a4,4,0,0,1,-4,4h-3a4,4,0,0,1,-4,-4v-8a4,4,0,0,1,4,-4z" stroke-width="0"></path><g id="node_text34" fill="#333" transform="translate( 0 0 )"><text id="kity_text_3869" text-rendering="inherit" dy="12.5" font-size="12" y="-6" x="0"> </text></g></g><g id="minder_node66" transform="matrix( 1 0 0 1 -49.5 -365.25 )"><path id="node_outline66" fill="transparent" d="M-1,-8h3a4,4,0,0,1,4,4v8a4,4,0,0,1,-4,4h-3a4,4,0,0,1,-4,-4v-8a4,4,0,0,1,4,-4z" stroke-width="0"></path><g id="node_text66" fill="#333" transform="translate( 0 0 )"><text id="kity_text_33343" text-rendering="inherit" dy="12.5" font-size="12" y="-6" x="0"> </text></g></g><g id="minder_node52" transform="matrix( 1 0 0 1 -153.5 -189.75 )"><path id="node_outline52" fill="transparent" d="M-1,-8h51a4,4,0,0,1,4,4v8a4,4,0,0,1,-4,4h-51a4,4,0,0,1,-4,-4v-8a4,4,0,0,1,4,-4z" stroke-width="0"></path><g id="node_text52" fill="#333" transform="translate( 0 -1.7500000000000002 )"><text id="kity_text_15049" text-rendering="inherit" dy="12.5" font-size="12" y="-6" x="0">反向传播</text></g></g><g id="minder_node29" transform="matrix( 1 0 0 1 629 -255 )"><path id="node_outline32" fill="transparent" d="M-1,-8h3a4,4,0,0,1,4,4v8a4,4,0,0,1,-4,4h-3a4,4,0,0,1,-4,-4v-8a4,4,0,0,1,4,-4z" stroke-width="0"></path><g id="node_text32" fill="#333" transform="translate( 0 0 )"><text id="kity_text_3582" text-rendering="inherit" dy="12.5" font-size="12" y="-6" x="0"> </text></g></g><g id="minder_node25" transform="matrix( 1 0 0 1 525 -235.125 )"><path id="node_outline31" fill="transparent" d="M-1,-8h3a4,4,0,0,1,4,4v8a4,4,0,0,1,-4,4h-3a4,4,0,0,1,-4,-4v-8a4,4,0,0,1,4,-4z" stroke-width="0"></path><g id="node_text31" fill="#333" transform="translate( 0 0 )"><text id="kity_text_3556" text-rendering="inherit" dy="12.5" font-size="12" y="-6" x="0"> </text></g></g><g id="minder_node61" transform="matrix( 1 0 0 1 780 -508.375 )"><path id="node_outline61" fill="transparent" d="M-1,-8h3a4,4,0,0,1,4,4v8a4,4,0,0,1,-4,4h-3a4,4,0,0,1,-4,-4v-8a4,4,0,0,1,4,-4z" stroke-width="0"></path><g id="node_text61" fill="#333" transform="translate( 0 0 )"><text id="kity_text_23574" text-rendering="inherit" dy="12.5" font-size="12" y="-6" x="0"> </text></g></g><g id="minder_node57" transform="matrix( 1 0 0 1 341.5 -531.375 )"><path id="node_outline57" fill="transparent" d="M-1,-8h3a4,4,0,0,1,4,4v8a4,4,0,0,1,-4,4h-3a4,4,0,0,1,-4,-4v-8a4,4,0,0,1,4,-4z" stroke-width="0"></path><g id="node_text57" fill="#333" transform="translate( 0 0 )"><text id="kity_text_19237" text-rendering="inherit" dy="12.5" font-size="12" y="-6" x="0"> </text></g></g><g id="minder_node58" transform="matrix( 1 0 0 1 461.5 -526.5 )"><path id="node_outline58" fill="transparent" d="M-1,-8h3a4,4,0,0,1,4,4v8a4,4,0,0,1,-4,4h-3a4,4,0,0,1,-4,-4v-8a4,4,0,0,1,4,-4z" stroke-width="0"></path><g id="node_text58" fill="#333" transform="translate( 0 0 )"><text id="kity_text_19289" text-rendering="inherit" dy="12.5" font-size="12" y="-6" x="0"> </text></g></g></g><g id="kity_g_20" display="none"><path id="kity_path_21" fill="none" stroke="#425e70" d="M150,-663h136a4,4,0,0,1,4,4v54a4,4,0,0,1,-4,4h-136a4,4,0,0,1,-4,-4v-54a4,4,0,0,1,4,-4z" stroke-width="5"></path></g></g></g></svg>